<svg
    xmlns="http://www.w3.org/2000/svg"
    viewBox="0 0 17 16"
    id="vector">
    <path
        id="path"
        d="M 8.146 8 M 0.146 8 C 0.146 5.879 0.989 3.843 2.489 2.343 C 3.989 0.843 6.025 0 8.146 0 C 10.267 0 12.303 0.843 13.803 2.343 C 15.303 3.843 16.146 5.879 16.146 8 C 16.146 10.121 15.303 12.157 13.803 13.657 C 12.303 15.157 10.267 16 8.146 16 C 6.025 16 3.989 15.157 2.489 13.657 C 0.989 12.157 0.146 10.121 0.146 8"
        fill="#ffd200"/>
    <path
        id="path_1"
        d="M 8.146 13.5 C 11.183 13.5 13.646 11.038 13.646 8 C 13.646 4.962 11.183 2.5 8.146 2.5 C 5.108 2.5 2.646 4.962 2.646 8 C 2.646 11.038 5.108 13.5 8.146 13.5 Z"
        fill="#ffe649"
        fill-rule="evenodd"/>
    <path
        id="path_2"
        d="M 7.186 4.8 C 7.186 4.27 7.616 3.84 8.146 3.84 C 8.676 3.84 9.106 4.27 9.106 4.8 L 9.106 11.2 C 9.106 11.73 8.676 12.16 8.146 12.16 C 7.616 12.16 7.186 11.73 7.186 11.2 L 7.186 4.8 Z"
        fill="#febe43"/>
    <path
        id="path_3"
        d="M 4.946 8.96 C 4.416 8.96 3.986 8.53 3.986 8 C 3.986 7.47 4.416 7.04 4.946 7.04 L 11.346 7.04 C 11.876 7.04 12.306 7.47 12.306 8 C 12.306 8.53 11.876 8.96 11.346 8.96 L 4.946 8.96 Z"
        fill="#febe43"/>
</svg>
