<svg
    xmlns="http://www.w3.org/2000/svg"
    viewBox="0 0 64 64"
    id="vector">
    <path
        id="path"
        d="M 48.97 15.03 C 53.27 19.33 53.58 25.98 49.67 29.88 L 44.72 34.83 C 43.781 35.769 42.507 36.298 41.18 36.3 C 40.717 36.297 40.273 36.112 39.945 35.785 C 39.618 35.457 39.433 35.013 39.43 34.55 C 39.43 33.59 40.22 32.8 41.18 32.8 C 41.56 32.8 41.95 32.65 42.24 32.36 L 47.19 27.41 C 49.73 24.87 49.42 20.43 46.49 17.51 C 43.56 14.58 39.13 14.27 36.59 16.81 L 31.64 21.76 C 31.35 22.05 31.2 22.44 31.2 22.82 C 31.2 23.78 30.41 24.57 29.45 24.57 C 28.986 24.57 28.541 24.385 28.213 24.057 C 27.885 23.729 27.7 23.284 27.7 22.82 C 27.7 21.54 28.2 20.26 29.17 19.28 L 34.12 14.33 C 38.02 10.43 44.67 10.74 48.97 15.04 Z M 15.03 48.97 C 10.73 44.67 10.42 38.02 14.32 34.12 L 19.27 29.17 C 19.734 28.704 20.286 28.334 20.893 28.082 C 21.501 27.829 22.152 27.7 22.81 27.7 C 23.77 27.7 24.57 28.49 24.56 29.45 C 24.557 29.913 24.372 30.357 24.045 30.685 C 23.717 31.012 23.273 31.197 22.81 31.2 C 22.43 31.2 22.04 31.35 21.75 31.64 L 16.8 36.59 C 14.26 39.13 14.57 43.57 17.5 46.49 C 20.43 49.42 24.86 49.73 27.4 47.19 L 32.35 42.24 C 32.64 41.95 32.79 41.56 32.79 41.18 C 32.79 40.22 33.58 39.43 34.54 39.43 C 35.003 39.433 35.447 39.618 35.775 39.945 C 36.102 40.273 36.287 40.717 36.29 41.18 C 36.288 42.507 35.759 43.781 34.82 44.72 L 29.87 49.67 C 25.96 53.58 19.32 53.27 15.02 48.97 Z M 40.46 26.01 L 26.01 40.46 C 25.31 41.16 24.19 41.17 23.51 40.48 C 22.83 39.8 22.84 38.68 23.53 37.98 L 37.99 23.54 C 38.69 22.84 39.81 22.83 40.49 23.52 C 41.17 24.2 41.16 25.32 40.47 26.02 Z"
        fill="#c2c2c2"/>
</svg>
