<svg
    xmlns="http://www.w3.org/2000/svg"
    viewBox="0 0 48 48"
    id="vector">
    <defs>
        <clipPath id="clip_path">
            <path d="M 0 0 L 48 0 L 48 48 L 0 48 Z"/>
        </clipPath>
        <clipPath id="clip_path_1">
            <path d="M 0 0 L 48 0 L 48 48 L 0 48 Z"/>
        </clipPath>
        <clipPath id="clip_path_2">
            <path d="M 0 0 L 48 0 L 48 48 L 0 48 Z"/>
        </clipPath>
        <clipPath id="clip_path_3">
            <path d="M 0 0 L 48 0 L 48 48 L 0 48 Z"/>
        </clipPath>
        <clipPath id="clip_path_4">
            <path d="M 0 0 L 48 0 L 48 48 L 0 48 Z"/>
        </clipPath>
        <clipPath id="clip_path_5">
            <path d="M 0 0 L 48 0 L 48 48 L 0 48 Z"/>
        </clipPath>
        <clipPath id="clip_path_6">
            <path d="M 0 0 L 48 0 L 48 48 L 0 48 Z"/>
        </clipPath>
        <clipPath id="clip_path_7">
            <path d="M 0 0 L 48 0 L 48 48 L 0 48 Z"/>
        </clipPath>
        <clipPath id="clip_path_8">
            <path d="M 0 0 L 48 0 L 48 48 L 0 48 Z"/>
        </clipPath>
        <clipPath id="clip_path_9">
            <path d="M 0 0 L 48 0 L 48 48 L 0 48 Z"/>
        </clipPath>
        <clipPath id="clip_path_10">
            <path d="M 0 0 L 48 0 L 48 48 L 0 48 Z"/>
        </clipPath>
        <clipPath id="clip_path_11">
            <path d="M 0 0 L 48 0 L 48 48 L 0 48 Z"/>
        </clipPath>
        <clipPath id="clip_path_12">
            <path d="M 0 0 L 48 0 L 48 48 L 0 48 Z"/>
        </clipPath>
        <clipPath id="clip_path_13">
            <path d="M 0 0 L 48 0 L 48 48 L 0 48 Z"/>
        </clipPath>
        <clipPath id="clip_path_14">
            <path d="M 0 0 L 48 0 L 48 48 L 0 48 Z"/>
        </clipPath>
        <clipPath id="clip_path_15">
            <path d="M 0 0 L 48 0 L 48 48 L 0 48 Z"/>
        </clipPath>
        <clipPath id="clip_path_16">
            <path d="M 0 0 L 48 0 L 48 48 L 0 48 Z"/>
        </clipPath>
        <clipPath id="clip_group">
            <path d="M 0 0 L 48 0 L 48 48 L 0 48 Z"/>
        </clipPath>
        <clipPath id="clip_path_17">
            <path d="M 3.6 32.882 L 31.682 4.801 L 49.916 23.035 L 21.835 51.117 Z"/>
        </clipPath>
        <clipPath id="clip_path_18">
            <path d="M 3.6 32.882 L 31.682 4.801 L 49.916 23.035 L 21.835 51.117 Z"/>
        </clipPath>
        <clipPath id="clip_path_19">
            <path d="M 3.6 32.882 L 31.682 4.801 L 49.916 23.035 L 21.835 51.117 Z"/>
        </clipPath>
        <clipPath id="clip_path_20">
            <path d="M 3.6 32.882 L 31.682 4.801 L 49.916 23.035 L 21.835 51.117 Z"/>
        </clipPath>
    </defs>
    <g id="group_1">
        <path
            id="path"
            clip-path="url(#clip_path)"
            d="M 24.538 38.125 C 29.438 28.328 31.979 23.535 35.23 16.576 C 35.281 16.466 35.295 16.348 35.27 16.235 C 35.246 16.121 35.185 16.018 35.094 15.937 C 32.912 14.004 31.159 12.585 28.694 10.523 C 28.653 10.489 28.601 10.465 28.544 10.455 C 25.376 9.911 23.727 9.44 21.192 9.048 C 21.143 9.041 21.092 9.043 21.045 9.057 C 18.469 9.758 13.391 10.998 11.5 11.478 C 11.45 11.49 11.404 11.514 11.366 11.545 L 5.69 16.251 C 5.646 16.287 5.613 16.332 5.596 16.382 C 4.634 19.452 3.792 21.737 2.879 24.442 C 2.839 24.56 2.842 24.684 2.885 24.797 C 2.928 24.911 3.01 25.008 3.119 25.077 C 10.949 29.971 14.304 32.327 23.835 38.307 C 23.891 38.343 23.955 38.366 24.023 38.375 C 24.092 38.385 24.162 38.381 24.229 38.363 C 24.296 38.346 24.359 38.315 24.412 38.273 C 24.465 38.233 24.508 38.181 24.537 38.125 Z"
            fill="none"
            stroke="#008799"
            stroke-width="3.518"/>
        <path
            id="path_1"
            clip-path="url(#clip_path_1)"
            d="M 24.169 38.559 C 25.925 30.799 26.481 28.06 27.778 22.935 C 25.467 19.535 25.312 19.095 22.76 15.704 C 19.012 16.654 9.407 15.411 5.542 16.392 C 4.438 19.822 3.976 21.097 2.675 24.9 L 24.169 38.559 Z"
            fill="none"
            fill-opacity="0.62"
            stroke-opacity="0.62"/>
        <path
            id="path_2"
            clip-path="url(#clip_path_2)"
            d="M 23.185 15.905 C 25.345 14.07 26.672 12.678 28.991 10.635 C 25.697 10.065 24.064 9.442 21.477 9.145 C 18.861 9.87 13.453 11.206 11.589 11.685 C 9.111 13.425 8.05 14.655 5.722 16.611 C 8.26 17.231 10.188 17.781 13.347 18.416 C 15.67 17.866 20.98 16.443 23.185 15.905 Z"
            fill="#a4f4ff"/>
        <path
            id="path_3"
            clip-path="url(#clip_path_3)"
            d="M 21.437 9.23 C 18.827 9.95 13.432 11.276 11.573 11.75 C 11.08 13.614 8.909 15.824 5.72 16.639 C 8.252 17.253 10.175 17.799 13.327 18.429 C 8.735 14.633 12.135 11.607 21.437 9.231 Z"
            fill="#fbfbfb"
            fill-opacity="0.86"
            stroke-opacity="0.86"/>
        <path
            id="path_4"
            clip-path="url(#clip_path_4)"
            d="M 12.916 26.544 L 27.756 22.817 L 24.129 38.534 L 2.526 24.794 L 12.916 26.544 Z"
            fill="#008799"/>
        <path
            id="path_5"
            clip-path="url(#clip_path_5)"
            d="M 27.971 22.62 L 35.345 16.004 L 24.35 38.234 L 27.971 22.62 Z"
            fill="#00e2d1"/>
        <path
            id="path_6"
            clip-path="url(#clip_path_6)"
            d="M 27.816 22.716 L 27.463 26.029 C 27.114 28.733 28.26 29.614 28.917 28.727 L 24.25 38.23 C 24.624 36.524 27.816 22.717 27.816 22.717 Z"
            fill="#85ffe2"/>
        <path
            id="path_7"
            clip-path="url(#clip_path_7)"
            d="M 28.672 10.397 L 35.346 16.134 L 24.342 38.38 L 13.206 26.458 C 15.417 25.82 27.966 22.755 27.966 22.755 L 22.949 15.526 L 28.672 10.396 Z"
            fill="#a4f4ff"
            fill-opacity="0.3"
            stroke-opacity="0.3"/>
        <path
            id="path_8"
            clip-path="url(#clip_path_8)"
            d="M 35.04 16.159 C 32.875 18.245 30.658 20.291 28.387 22.295 C 28.344 22.333 28.293 22.362 28.237 22.38 C 28.18 22.398 28.121 22.405 28.062 22.4 C 28.003 22.395 27.947 22.38 27.898 22.352 C 27.848 22.326 27.806 22.289 27.776 22.246 L 23.177 15.736 C 23.157 15.706 23.147 15.671 23.153 15.636 C 23.158 15.6 23.176 15.566 23.205 15.541 L 28.705 10.555 C 28.735 10.525 28.752 10.487 28.751 10.448 C 28.751 10.408 28.734 10.372 28.703 10.345 C 28.672 10.318 28.63 10.303 28.586 10.303 C 28.541 10.303 28.498 10.319 28.465 10.346 L 22.809 15.47 C 22.786 15.49 22.759 15.505 22.728 15.513 C 19.568 16.36 16.395 17.17 13.211 17.943 C 13.196 17.933 13.178 17.924 13.16 17.919 C 10.718 17.229 8.25 16.613 5.754 16.069 C 5.712 16.063 5.668 16.071 5.631 16.092 C 5.594 16.112 5.567 16.145 5.555 16.182 C 5.543 16.219 5.546 16.258 5.565 16.291 C 5.585 16.325 5.617 16.35 5.657 16.362 C 8.077 16.891 10.473 17.487 12.843 18.151 C 12.879 18.161 12.909 18.181 12.931 18.208 C 12.952 18.235 12.963 18.268 12.961 18.302 C 12.849 20.916 12.814 23.529 12.856 26.14 C 12.856 26.164 12.851 26.188 12.839 26.21 C 12.828 26.231 12.811 26.251 12.79 26.267 C 12.769 26.282 12.745 26.294 12.718 26.3 C 12.692 26.306 12.665 26.307 12.638 26.303 L 2.82 24.7 C 2.605 24.666 2.507 24.96 2.723 24.995 L 12.821 26.642 C 12.85 26.648 12.876 26.661 12.897 26.679 C 12.917 26.697 12.932 26.719 12.939 26.745 C 12.947 26.765 12.959 26.784 12.974 26.799 C 16.74 30.635 23.992 38.496 24.039 38.499 C 24.113 38.594 24.446 38.539 24.482 38.393 L 28.219 22.92 C 28.224 22.898 28.225 22.876 28.22 22.854 C 30.632 20.742 32.985 18.579 35.28 16.366 C 35.432 16.221 35.193 16.01 35.04 16.158 Z M 13.44 18.198 C 16.532 17.446 19.614 16.66 22.686 15.838 C 22.723 15.828 22.762 15.828 22.798 15.84 C 22.834 15.85 22.864 15.872 22.884 15.9 C 24.418 18.073 25.951 20.245 27.482 22.418 C 27.509 22.456 27.526 22.501 27.53 22.547 C 27.534 22.593 27.525 22.64 27.505 22.684 C 27.485 22.727 27.454 22.767 27.415 22.798 C 27.375 22.83 27.327 22.854 27.275 22.867 L 13.42 26.343 C 13.394 26.35 13.367 26.351 13.34 26.347 C 13.314 26.343 13.29 26.333 13.268 26.32 C 13.247 26.306 13.229 26.288 13.218 26.267 C 13.205 26.247 13.198 26.223 13.198 26.199 C 13.155 23.586 13.189 20.97 13.3 18.353 C 13.301 18.318 13.316 18.283 13.341 18.256 C 13.367 18.228 13.401 18.207 13.44 18.198 Z M 23.764 37.708 C 20.614 33.908 16.997 30.416 13.502 26.868 C 13.482 26.848 13.469 26.824 13.464 26.798 C 13.458 26.771 13.46 26.744 13.469 26.718 C 13.479 26.692 13.496 26.668 13.518 26.649 C 13.54 26.63 13.568 26.616 13.598 26.609 L 27.238 23.186 C 27.303 23.169 27.371 23.166 27.435 23.18 C 27.499 23.192 27.558 23.22 27.606 23.259 C 27.654 23.298 27.689 23.348 27.709 23.403 C 27.728 23.459 27.731 23.518 27.717 23.576 L 24.33 37.586 C 24.317 37.64 24.287 37.69 24.243 37.729 C 24.199 37.769 24.144 37.796 24.084 37.809 C 24.024 37.822 23.962 37.819 23.905 37.801 C 23.848 37.783 23.799 37.751 23.765 37.708 Z"
            fill="#78ecf7"/>
        <path
            id="path_9"
            clip-path="url(#clip_path_9)"
            d="M 22.977 15.834 L 16.173 16.725 C 13.675 17.052 12.037 14.554 13.621 12.775 C 13.77 12.595 13.956 12.441 14.168 12.322 L 21.282 9.21 L 11.504 11.691 C 11.504 11.691 6.688 15.693 5.704 16.513 C 5.704 16.513 6.481 27.543 13.217 26.698 C 20.592 25.776 23.003 16.926 22.977 15.834 Z"
            fill="none"
            fill-opacity="0.12"
            stroke-opacity="0.12"/>
        <path
            id="path_10"
            clip-path="url(#clip_path_10)"
            d="M 2.845 19.519 L 2.689 15.451 L 6.591 13.183 L 10.648 14.983 L 10.803 19.05 L 6.901 21.319 L 2.845 19.519 Z"
            fill="#a4f4ff"
            fill-opacity="0.2"
            stroke-opacity="0.2"/>
        <path
            id="path_11"
            clip-path="url(#clip_path_11)"
            d="M 1.492 19.88 L 7.027 17.085 L 2.239 13.645 L 7.29 16.755 L 9.551 11.397 L 7.729 16.957 L 12.533 17.542 L 7.652 17.373 L 8.132 22.585 L 7.17 17.453 L 1.492 19.88 Z"
            fill="#fbfbfb"
            fill-opacity="0.3"
            stroke-opacity="0.3"/>
        <path
            id="path_12"
            clip-path="url(#clip_path_12)"
            d="M 4.869 17.572 L 5.555 15.455 L 7.947 14.865 L 9.652 16.392 L 8.965 18.509 L 6.573 19.099 L 4.869 17.572 Z"
            fill="none"
            fill-opacity="0.47"
            stroke-opacity="0.47"/>
        <path
            id="path_13"
            clip-path="url(#clip_path_13)"
            d="M 6.304 17.805 L 6.19 16.73 L 7.188 16.075 L 8.298 16.495 L 8.412 17.571 L 7.414 18.226 L 6.303 17.806 Z"
            fill="none"
            fill-opacity="0.81"
            stroke-opacity="0.81"/>
        <path
            id="path_14"
            clip-path="url(#clip_path_14)"
            d="M 2.272 19.554 L 7.186 17.094 L 3.072 14.184 L 7.365 16.872 L 9.322 12.04 L 7.589 17.003 L 12.059 17.51 L 7.505 17.27 L 8.038 21.751 L 7.271 17.309 L 2.271 19.554 Z"
            fill="#fbfbfb"
            fill-opacity="0.8"
            stroke-opacity="0.8"/>
        <path
            id="path_15"
            clip-path="url(#clip_path_15)"
            d="M 26.192 31.135 L 25.506 29.813 L 26.475 28.588 L 28.13 28.684 L 28.815 30.007 L 27.847 31.232 L 26.192 31.135 Z"
            fill="none"
            fill-opacity="0.57"
            stroke-opacity="0.57"/>
        <path
            id="path_16"
            clip-path="url(#clip_path_16)"
            d="M 27.073 30.693 L 26.477 30.198 L 26.68 29.478 L 27.48 29.253 L 28.076 29.748 L 27.873 30.468 L 27.073 30.693 Z"
            fill="none"/>
        <g
            id="group"
            clip-path="url(#clip_group)">
            <path
                id="path_17"
                clip-path="url(#clip_path_17)"
                d="M 6.323 30.159 C 25.148 21.223 26.252 16.856 37.12 10.239 L 47.194 25.758 C 36.066 31.07 32.7 38.019 16.397 45.678 L 6.323 30.16 Z"
                fill="#88c576"
                fill-rule="evenodd"/>
            <path
                id="path_18"
                clip-path="url(#clip_path_18)"
                d="M 11.771 33.792 L 15.648 39.765 C 16.321 39.489 17.067 39.441 17.772 39.627 C 18.477 39.812 19.103 40.222 19.556 40.795 C 20.839 40.091 22.088 39.363 23.304 38.61 C 24.691 37.75 26.06 36.839 27.411 35.877 C 29.344 34.5 31.194 33.041 33.044 31.58 C 34.218 30.654 35.392 29.726 36.484 28.897 C 37.274 28.297 38.084 27.704 38.923 27.119 C 39.589 26.654 40.264 26.202 40.947 25.764 C 40.717 25.148 40.673 24.479 40.819 23.839 C 40.966 23.199 41.297 22.618 41.771 22.166 L 38.011 16.373 C 37.404 16.62 36.736 16.684 36.091 16.556 C 35.447 16.428 34.853 16.114 34.384 15.653 C 33.774 16.097 33.155 16.559 32.528 17.038 C 31.72 17.654 30.96 18.248 30.223 18.834 C 28.788 19.974 27.377 21.084 25.971 22.135 C 24.549 23.201 23.091 24.24 21.55 25.249 C 20.034 26.241 18.492 27.182 16.935 28.079 C 15.535 28.884 14.114 29.662 12.67 30.413 C 12.845 31.006 12.855 31.635 12.696 32.231 C 12.538 32.827 12.218 33.367 11.771 33.792 Z M 14.921 40.902 L 10.097 33.472 L 10.613 33.138 C 11.053 32.855 11.37 32.418 11.506 31.913 C 11.642 31.408 11.586 30.869 11.348 30.402 L 11.07 29.857 L 11.61 29.577 C 13.192 28.759 14.764 27.907 16.318 27.012 C 17.872 26.118 19.395 25.189 20.876 24.22 C 22.366 23.245 23.807 22.217 25.233 21.149 C 26.677 20.067 28.063 18.977 29.459 17.869 C 30.271 17.225 31.049 16.616 31.782 16.056 C 32.539 15.479 33.316 14.902 34.124 14.323 L 34.63 13.96 L 34.988 14.476 C 35.303 14.93 35.782 15.244 36.323 15.351 C 36.863 15.458 37.425 15.351 37.886 15.051 L 38.403 14.717 L 43.446 22.487 L 42.929 22.821 C 42.469 23.117 42.144 23.581 42.019 24.113 C 41.895 24.646 41.982 25.207 42.262 25.679 L 42.57 26.196 L 42.064 26.513 C 41.243 27.028 40.43 27.567 39.624 28.13 C 38.842 28.676 38.044 29.26 37.229 29.88 C 36.007 30.809 34.904 31.678 33.803 32.548 C 31.934 34.023 30.067 35.497 28.124 36.88 C 26.76 37.852 25.371 38.776 23.957 39.652 C 22.527 40.54 21.09 41.372 19.647 42.15 L 19.099 42.446 L 18.809 41.893 C 18.798 41.87 18.781 41.84 18.759 41.803 L 18.706 41.719 C 18.399 41.247 17.918 40.915 17.368 40.797 C 16.818 40.678 16.244 40.783 15.773 41.087 L 15.256 41.422 L 14.92 40.902 Z"
                fill="#52973b"
                fill-rule="evenodd"/>
            <path
                id="path_19"
                clip-path="url(#clip_path_19)"
                d="M 16.603 33.425 C 16.82 33.285 17.074 33.212 17.333 33.215 C 17.593 33.22 17.844 33.301 18.058 33.448 C 18.271 33.596 18.437 33.803 18.533 34.044 C 18.629 34.284 18.652 34.548 18.598 34.801 C 18.545 35.054 18.418 35.286 18.232 35.466 C 18.047 35.646 17.812 35.766 17.557 35.813 C 17.303 35.86 17.04 35.83 16.802 35.727 C 16.564 35.624 16.362 35.453 16.22 35.235 C 16.03 34.943 15.964 34.589 16.036 34.249 C 16.108 33.909 16.312 33.613 16.603 33.425 Z M 35.907 20.938 C 36.124 20.798 36.377 20.725 36.637 20.729 C 36.896 20.734 37.148 20.814 37.362 20.962 C 37.575 21.109 37.74 21.316 37.837 21.557 C 37.933 21.797 37.956 22.062 37.902 22.315 C 37.848 22.568 37.721 22.799 37.535 22.979 C 37.35 23.159 37.115 23.281 36.861 23.327 C 36.606 23.373 36.343 23.343 36.105 23.24 C 35.867 23.137 35.665 22.966 35.523 22.749 C 35.43 22.604 35.365 22.443 35.333 22.273 C 35.303 22.104 35.304 21.931 35.34 21.763 C 35.375 21.594 35.444 21.435 35.541 21.293 C 35.638 21.153 35.763 21.032 35.907 20.938 Z M 23.467 22.889 C 26.605 20.859 30.804 21.764 32.847 24.909 C 34.888 28.056 34 32.251 30.862 34.281 C 27.724 36.311 23.525 35.406 21.483 32.26 C 19.441 29.114 20.329 24.918 23.467 22.889 Z M 24.222 25.022 L 24.842 25.977 C 24.06 26.665 23.566 27.668 24.193 28.633 C 24.878 29.688 25.874 29.576 26.903 29.153 L 27.983 30.816 C 27.446 31.013 26.875 31.006 26.4 30.672 L 25.826 31.682 C 26.733 32.317 27.658 32.258 28.607 31.778 L 29.22 32.722 L 30.11 32.146 L 29.5 31.207 C 30.486 30.419 30.996 29.323 30.285 28.227 C 29.505 27.025 28.385 27.244 27.253 27.747 L 26.326 26.317 C 26.811 26.137 27.308 26.149 27.612 26.299 L 28.162 25.337 C 27.352 24.85 26.485 25.001 25.722 25.387 L 25.112 24.447 L 24.222 25.022 Z M 27.88 28.712 L 28.887 30.267 C 29.327 29.871 29.562 29.375 29.251 28.895 C 28.977 28.472 28.476 28.483 27.879 28.713 Z M 26.271 28.179 L 25.443 26.904 C 25.078 27.294 25.036 27.692 25.238 28.003 C 25.452 28.333 25.826 28.328 26.27 28.18 L 26.271 28.18 Z"
                fill="#52973b"
                fill-rule="evenodd"/>
            <path
                id="path_20"
                clip-path="url(#clip_path_20)"
                d="M 28.162 25.337 C 27.351 24.85 26.485 25.001 25.722 25.387 L 25.11 24.447 L 24.221 25.022 L 24.841 25.978 C 24.059 26.666 23.566 27.668 24.193 28.634 C 24.878 29.689 25.873 29.577 26.903 29.154 L 27.983 30.817 C 27.446 31.013 26.875 31.007 26.4 30.672 L 25.825 31.683 C 26.732 32.318 27.657 32.259 28.607 31.779 L 29.219 32.723 L 30.109 32.147 L 29.499 31.208 C 30.486 30.42 30.995 29.323 30.284 28.228 C 29.504 27.026 28.384 27.244 27.253 27.747 L 26.325 26.318 C 26.811 26.138 27.307 26.15 27.612 26.299 L 28.162 25.338 Z M 28.888 30.267 L 27.88 28.712 C 28.478 28.482 28.978 28.472 29.252 28.894 C 29.564 29.374 29.329 29.87 28.889 30.266 L 28.888 30.266 Z M 25.444 26.905 L 26.271 28.179 C 25.827 28.328 25.453 28.333 25.238 28.003 C 25.037 27.693 25.078 27.295 25.443 26.904 Z"
                fill="#ffffff"
                fill-rule="evenodd"/>
        </g>
    </g>
</svg>
