<svg
    xmlns="http://www.w3.org/2000/svg"
    viewBox="0 0 48 48"
    id="vector">
    <path
        id="path"
        d="M 0 24 C 0 10.745 10.745 0 24 0 C 37.255 0 48 10.745 48 24 C 48 37.255 37.255 48 24 48 C 10.745 48 0 37.255 0 24 Z"
        fill="#212529"/>
    <path
        id="path_1"
        d="M 34.718 16.971 L 34.723 17.276 L 34.723 18.016 L 34.717 18.015 L 34.717 21.679 C 34.717 25.959 32.063 29.619 28.31 31.101 C 31.642 32.133 34.078 34.641 35.566 38.581 C 35.715 38.973 35.516 39.411 35.124 39.559 C 34.732 39.707 34.294 39.509 34.146 39.117 C 32.358 34.387 29.186 32.079 24.509 32.079 C 19.834 32.079 16.689 34.384 14.948 39.111 C 14.803 39.505 14.366 39.706 13.973 39.561 C 13.579 39.416 13.378 38.98 13.523 38.586 C 14.985 34.616 17.423 32.098 20.785 31.078 C 17.125 29.62 14.496 26.119 14.318 21.972 L 14.309 21.692 L 14.26 18.675 C 14.168 12.986 18.704 8.3 24.393 8.207 C 26.326 8.175 28.229 8.689 29.884 9.687 C 29.923 9.711 29.959 9.737 29.992 9.766 L 30.419 10.043 C 32.451 11.356 34.115 13.342 34.589 15.831 C 34.652 15.925 34.695 16.034 34.711 16.151 L 34.718 16.255 L 34.718 16.971 Z M 25.664 15.904 C 25.272 16.072 24.858 16.322 24.208 16.771 L 22.743 17.798 C 22.505 17.963 22.281 18.115 22.047 18.271 C 20.277 19.449 18.997 19.306 17.909 18.264 L 17.741 18.094 L 17.512 17.845 L 17.484 17.889 C 16.89 18.814 16.254 20.111 15.912 21.169 L 15.826 21.452 L 15.824 21.455 L 15.828 21.667 C 15.906 26.451 19.806 30.287 24.59 30.287 C 29.225 30.287 33.004 26.625 33.192 22.036 C 33.142 21.937 33.117 21.826 33.118 21.709 C 33.138 19.095 31.328 16.628 28.614 15.914 C 27.239 15.554 26.456 15.564 25.664 15.904 Z M 24.417 9.725 C 19.88 9.799 16.202 13.302 15.812 17.725 C 16.009 17.378 16.21 17.055 16.407 16.767 C 16.827 16.198 17.392 15.975 17.976 16.266 C 18.131 16.344 18.261 16.443 18.402 16.58 L 18.512 16.69 C 18.562 16.743 18.81 17.015 18.879 17.087 C 19.472 17.699 19.957 17.797 21.039 17.115 L 21.205 17.007 C 21.507 16.806 21.794 16.609 22.119 16.383 L 23.344 15.523 L 23.796 15.217 C 24.288 14.893 24.671 14.677 25.065 14.508 C 26.202 14.02 27.323 14.005 29 14.445 C 30.756 14.907 32.21 15.954 33.2 17.313 L 33.201 16.549 C 32.944 14.399 31.569 12.619 29.832 11.429 L 29.616 11.286 L 29.274 11.066 C 29.214 11.047 29.155 11.022 29.099 10.988 C 27.689 10.136 26.066 9.698 24.418 9.725 Z"
        fill="#ffffff"/>
</svg>
