<?xml version="1.0" standalone="no"?>
<!DOCTYPE svg PUBLIC "-//W3C//DTD SVG 20010904//EN"
 "http://www.w3.org/TR/2001/REC-SVG-20010904/DTD/svg10.dtd">
<svg version="1.0" xmlns="http://www.w3.org/2000/svg"
 width="512.000000pt" height="512.000000pt" viewBox="0 0 512.000000 512.000000"
 preserveAspectRatio="xMidYMid meet">

<g transform="translate(0.000000,512.000000) scale(0.100000,-0.100000)"
fill="#000000" stroke="none">
<path d="M2370 5113 c-371 -35 -653 -114 -961 -269 -245 -122 -444 -268 -655
-478 -224 -225 -366 -423 -500 -701 -158 -326 -237 -650 -251 -1020 -15 -426
73 -832 263 -1214 133 -269 271 -459 488 -677 221 -220 412 -357 681 -489 188
-92 309 -137 500 -185 196 -49 343 -70 545 -77 580 -20 1143 158 1615 511 138
103 379 339 477 466 496 644 663 1434 468 2210 -59 235 -182 525 -306 720
-197 310 -472 591 -774 791 -130 87 -410 226 -550 274 -204 70 -413 115 -625
135 -102 9 -333 11 -415 3z m386 -1043 c84 -22 175 -66 259 -125 138 -97 242
-254 291 -435 24 -90 24 -272 0 -365 -105 -400 -498 -651 -894 -569 -251 51
-464 226 -561 459 -132 317 -30 696 243 901 195 147 427 193 662 134z m106
-2045 c446 -68 836 -268 1161 -597 75 -76 127 -137 127 -148 0 -11 -52 -72
-127 -148 -332 -335 -735 -539 -1193 -603 -122 -17 -418 -17 -540 0 -466 65
-904 291 -1224 633 -53 57 -96 109 -96 118 0 22 156 187 261 276 301 255 694
430 1060 473 52 6 110 13 129 15 67 8 345 -4 442 -19z"/>
</g>
</svg>
