<svg xmlns="http://www.w3.org/2000/svg" width="200" height="200"><path fill="#5E889E" d="m197.422 77.135-94.303-72.97a5.084 5.084 0 0 0-6.238 0l-94.3 72.97a5.097 5.097 0 0 0-1.709 5.679 5.106 5.106 0 0 0 4.825 3.449h188.605c2.121 0 4.1-1.332 4.825-3.449a5.105 5.105 0 0 0-1.705-5.679zM59.066 62.932l40.935-31.678 40.935 31.678h-81.87zm4.363 97.502h-5.128v-53.965c3.709 0 6.746-3.037 6.746-6.745 0-3.713-3.037-6.746-6.746-6.746H32.167c-3.711 0-6.749 3.033-6.749 6.746 0 3.708 3.037 6.745 6.749 6.745v53.965h-5.126c-.893 0-1.623.726-1.623 1.616v3.236c0 .891.729 1.62 1.623 1.62h36.388c.889 0 1.618-.729 1.618-1.62v-3.236c0-.891-.73-1.616-1.618-1.616zm54.764 0h-5.124v-53.965c3.708 0 6.744-3.037 6.744-6.745 0-3.713-3.036-6.746-6.744-6.746H86.933c-3.711 0-6.746 3.033-6.746 6.746 0 3.708 3.035 6.745 6.746 6.745v53.965h-5.125c-.893 0-1.621.726-1.621 1.616v3.236c0 .891.728 1.62 1.621 1.62h36.386c.891 0 1.62-.729 1.62-1.62v-3.236a1.623 1.623 0 0 0-1.621-1.616zm54.768 0h-5.128v-53.965c3.711 0 6.748-3.037 6.748-6.745 0-3.713-3.037-6.746-6.748-6.746H141.7c-3.709 0-6.746 3.033-6.746 6.746 0 3.708 3.037 6.745 6.746 6.745v53.965h-5.128c-.887 0-1.618.726-1.618 1.616v3.236c0 .891.731 1.62 1.618 1.62h36.389c.891 0 1.62-.729 1.62-1.62v-3.236c0-.891-.729-1.616-1.62-1.616zm10.374 24.804v-8.33a3.31 3.31 0 0 0-.979-2.358 3.302 3.302 0 0 0-2.354-.976h-160c-.853 0-1.707.322-2.358.976a3.324 3.324 0 0 0-.976 2.358v8.33H3.334A3.33 3.33 0 0 0 0 188.572v8.331h200v-8.331c0-.853-.326-1.705-.978-2.358a3.32 3.32 0 0 0-2.355-.976h-13.332z"/></svg>