<svg
    xmlns="http://www.w3.org/2000/svg"
    viewBox="0 0 40 40"
    id="vector">
    <g
        id="group"
        transform="translate(0 -3)">
        <path
            id="path"
            d="M 20 8 C 28.284 8 35 14.716 35 23 C 35 31.284 28.284 38 20 38 C 11.716 38 5 31.284 5 23 C 5 14.716 11.716 8 20 8 Z"
            fill="#ffe749"/>
        <path
            id="path_1"
            d="M 20 43 C 8.954 43 0 34.046 0 23 C 0 11.954 8.954 3 20 3 C 31.046 3 40 11.954 40 23 C 40 34.046 31.046 43 20 43 Z M 20 37 C 27.732 37 34 30.732 34 23 C 34 15.268 27.732 9 20 9 C 12.268 9 6 15.268 6 23 C 6 30.732 12.268 37 20 37 Z"
            fill="#ffd300"/>
        <path
            id="path_2"
            d="M 20 43 C 8.954 43 0 34.046 0 23 C 0 11.954 8.954 3 20 3 C 31.046 3 40 11.954 40 23 C 40 34.046 31.046 43 20 43 Z M 20 42.5 C 30.77 42.5 39.5 33.77 39.5 23 C 39.5 12.23 30.77 3.5 20 3.5 C 9.23 3.5 0.5 12.23 0.5 23 C 0.5 33.77 9.23 42.5 20 42.5 Z"
            fill="#ffd300"/>
        <path
            id="path_3"
            d="M 20 37 C 12.268 37 6 30.732 6 23 C 6 15.268 12.268 9 20 9 C 27.732 9 34 15.268 34 23 C 34 30.732 27.732 37 20 37 Z M 20 36.65 C 27.539 36.65 33.65 30.539 33.65 23 C 33.65 15.461 27.539 9.35 20 9.35 C 12.461 9.35 6.35 15.461 6.35 23 C 6.35 30.539 12.461 36.65 20 36.65 Z"
            fill="#ffd300"/>
        <path
            id="path_4"
            d="M 26.85 20.895 L 22.628 20.895 C 22.628 18.802 21.044 18.541 19.984 18.541 C 18.924 18.541 17.349 18.802 17.35 22.988 C 17.351 27.174 18.933 27.698 19.989 27.698 C 21.044 27.698 22.628 27.698 22.628 25.605 L 26.85 25.605 C 26.85 27.698 24.739 31.36 21.572 31.36 L 21.572 34.5 L 18.406 34.5 L 18.406 31.36 C 15.766 31.36 12.6 27.174 12.6 22.988 C 12.6 18.802 15.767 15.14 18.406 15.14 L 18.406 12 L 21.572 12 L 21.572 15.14 C 24.739 15.14 26.85 18.54 26.85 20.895 Z"
            fill="#ffd300"/>
        <path
            id="path_5"
            d="M 26.5 21 L 22.5 21 C 22.5 19 21 18.75 19.996 18.75 C 18.991 18.75 17.499 19 17.5 23 C 17.501 27 19 27.5 20 27.5 C 21 27.5 22.5 27.5 22.5 25.5 L 26.5 25.5 C 26.5 27.5 24.5 31 21.5 31 L 21.5 34 L 18.5 34 L 18.5 31 C 16 31 13 27 13 23 C 13 19 16 15.5 18.5 15.5 L 18.5 12.5 L 21.5 12.5 L 21.5 15.5 C 24.5 15.5 26.5 18.75 26.5 21 Z"
            fill="#ffd200"/>
    </g>
</svg>
