<svg
    xmlns="http://www.w3.org/2000/svg"
    viewBox="0 0 270 270"
    id="vector">
    <path
        id="path"
        d="M 128 41.21 C 128 41.21 112 44.43 112 44.43 C 85.74 51.84 61.83 71.04 50.31 96 C 26.53 147.52 48.68 207.86 102 229.4 C 110.31 232.75 123.05 235.89 132 236 C 152.24 236.23 166.8 234.55 185 224.69 C 192.8 220.47 202.78 213.37 208.83 206.96 C 246.61 166.96 244.91 106.47 206 68 C 197.32 59.42 188.18 53.51 177 48.72 C 166.01 44.01 152.98 41.02 141 41.21 C 141 41.21 128 41.21 128 41.21 Z M 138.1 73.66 C 143.99 73.24 144.89 77.52 147.42 82 C 150.33 87.14 158.65 104.67 161.61 107.57 C 164.11 110.02 167.71 110.2 171 110.75 C 171 110.75 191 114.25 191 114.25 C 193.76 114.71 200.34 115.27 201.97 117.56 C 204.55 121.18 200.28 125.59 197.98 128 C 193.19 133.01 179.41 145.7 176.87 151 C 175.1 154.7 176.33 159.14 176.87 163 C 176.87 163 180.38 187 180.38 187 C 180.82 192.35 178.57 195.27 173 193.49 C 173 193.49 149 181.75 149 181.75 C 146.24 180.37 141.68 177.7 138.58 178.08 C 138.58 178.08 112 190.75 112 190.75 C 109.25 192.12 104.28 195.05 101.23 193.64 C 97.01 191.7 98.85 185.51 99.41 182 C 99.41 182 102.27 162 102.27 162 C 102.68 159.15 103.63 154.73 102.78 152 C 101.27 147.14 87.27 134.3 83 130 C 80.55 127.53 76.3 123.85 76.28 120.11 C 76.25 114.64 87.95 114.31 92 113.58 C 97.41 112.6 114.08 110.78 117.47 107.57 C 119.96 105.22 128.6 87.57 131.14 83 C 133.43 78.88 133.89 76.14 138.1 73.66 Z"
        fill="#f4af00"/>
    <path
        id="path_1"
        d="M 137.21 74.04 C 133.42 77.25 125.9 92.73 123.25 98 C 121.67 101.14 119.58 106.19 116.79 108.27 C 114.2 110.19 109.2 110.71 106 111.25 C 106 111.25 87 114.58 87 114.58 C 83.77 115.16 77.87 115.45 76.66 119.14 C 75.34 123.15 80.51 127.49 83 130 C 83 130 97 144 97 144 C 99.13 146.16 102.24 149.02 103.09 152 C 103.76 154.34 102.8 159.47 102.42 162 C 102.42 162 99.43 182 99.43 182 C 98.95 185.19 97.51 191.79 101.24 193.39 C 104.67 194.85 109.96 191.76 113 190.25 C 113 190.25 131 181.25 131 181.25 C 134.05 179.72 137.49 177.49 141 178.17 C 141 178.17 168 191.24 168 191.24 C 170.93 192.67 176.41 195.46 179.32 192.4 C 181.32 190.12 179.85 183.88 179.32 181 C 179.32 181 176.6 161 176.6 161 C 175.89 157.4 174.87 153.32 176.6 150 C 178.48 147.03 191.65 134.36 195 131 C 197.17 128.83 201.51 124.9 202.34 122 C 203.92 116.53 197.79 115.58 194 114.92 C 194 114.92 174 111.41 174 111.41 C 171.1 110.93 165.5 110.23 163.1 108.84 C 159.86 106.96 158.37 103.21 156.75 100 C 156.75 100 147.25 82 147.25 82 C 144.84 77.23 143.49 72.26 137.21 74.04 Z"
        fill="#ffda03"/>
    <path
        id="path_2"
        d="M 126 14.21 C 117.97 15.64 113.02 16.14 105 18.43 C 67.05 29.25 36.11 56.97 22.06 94 C -3.18 160.56 30.76 235.91 99 258.67 C 108.44 261.81 122.09 264.88 132 265 C 156.44 265.28 177.08 262.57 199 250.69 C 257.97 218.74 281.53 146.74 253.69 86 C 246.63 70.6 237.96 59.82 226 48 C 215.2 37.33 201.17 28.3 187 22.81 C 174.3 17.89 158.65 14.02 145 14.21 C 145 14.21 126 14.21 126 14.21 Z M 128 41.29 C 157.28 38.55 186.87 48.21 207.83 69.17 C 243.1 104.44 245.74 162.59 214.08 201 C 206.54 210.14 197.41 217.97 187 223.69 C 166.36 235.03 153.9 236.26 131 236 C 124.64 235.92 118.13 234.52 112 232.85 C 82.46 224.76 58.92 203.32 47.45 175 C 41.59 160.52 40.98 149.25 41 134 C 41.06 97.81 65.53 63.95 98 49.31 C 107.5 45.03 117.76 42.85 128 41.29 Z"
        fill="#ffda03"/>
</svg>
