<?xml version="1.0" standalone="no"?>
<!DOCTYPE svg PUBLIC "-//W3C//DTD SVG 20010904//EN"
 "http://www.w3.org/TR/2001/REC-SVG-20010904/DTD/svg10.dtd">
<svg version="1.0" xmlns="http://www.w3.org/2000/svg"
 width="512.000000pt" height="512.000000pt" viewBox="0 0 512.000000 512.000000"
 preserveAspectRatio="xMidYMid meet">

<g transform="translate(0.000000,512.000000) scale(0.100000,-0.100000)"
fill="#000000" stroke="none">
<path d="M445 4500 c-194 -40 -352 -179 -417 -368 l-23 -67 0 -1505 0 -1505
23 -67 c57 -163 178 -286 348 -350 l59 -23 2090 -3 c2311 -3 2162 -7 2297 60
84 42 194 152 236 236 66 134 63 51 60 1687 l-3 1480 -23 59 c-63 167 -175
281 -340 345 l-67 26 -2100 1 c-1155 1 -2118 -2 -2140 -6z m4210 -307 c29 -9
66 -33 90 -58 81 -80 75 37 75 -1562 0 -991 -3 -1422 -10 -1418 -6 4 -286 300
-621 658 -336 359 -627 662 -647 674 -43 26 -91 29 -135 8 -18 -8 -97 -85
-176 -170 -79 -85 -147 -155 -152 -155 -4 0 -193 204 -419 453 -226 248 -425
460 -443 470 -39 21 -89 22 -130 2 -19 -9 -386 -405 -907 -978 l-875 -964 -3
1421 c-2 1597 -8 1481 73 1561 79 80 -112 73 2181 74 1884 1 2054 0 2099 -16z
m-2174 -1820 c179 -197 340 -375 358 -395 l33 -38 -163 -172 c-89 -95 -171
-186 -181 -203 -41 -68 -12 -163 63 -203 53 -28 107 -24 154 12 16 13 185 191
375 394 190 204 347 370 350 370 7 0 1134 -1206 1138 -1218 3 -7 -694 -10
-2053 -10 -1202 0 -2055 4 -2053 9 5 14 1641 1811 1648 1811 4 0 153 -161 331
-357z"/>
<path d="M3772 3890 c-109 -29 -187 -74 -273 -160 -189 -188 -232 -465 -107
-703 42 -81 164 -203 245 -245 238 -125 514 -82 704 107 189 190 232 466 107
704 -42 81 -164 203 -245 245 -132 69 -291 88 -431 52z m282 -314 c105 -51
161 -144 161 -266 0 -85 -21 -142 -74 -203 -82 -92 -237 -121 -353 -64 -160
79 -215 278 -118 430 80 126 246 170 384 103z"/>
</g>
</svg>
