<svg
    xmlns="http://www.w3.org/2000/svg"
    viewBox="0 0 64 64"
    id="vector">
    <path
        id="path"
        d="M 27.484 53.334 L 26.416 53.334 C 24.114 53.334 22.078 54.462 21.323 56.643 C 20.962 57.686 21.907 58.609 23.012 58.609 L 40.495 58.609 C 41.599 58.609 42.545 57.686 42.183 56.643 C 41.426 54.462 39.388 53.334 37.09 53.334 L 35.489 53.334 M 27.484 53.334 L 27.484 46.154 M 27.484 53.334 L 35.489 53.334 M 35.489 53.334 L 35.489 46.211 M 17.957 23.751 L 11.338 23.751 C 10.233 23.751 9.333 24.647 9.364 25.751 C 9.614 34.678 12.011 42.577 22.717 42.577 M 45.585 23.751 L 52.169 23.751 C 53.274 23.751 54.174 24.647 54.145 25.752 C 53.915 34.678 51.526 42.577 41 42.577 M 31.239 46.761 C 21.04 46.761 18.139 35.336 17.895 21.569 C 17.875 20.465 18.773 19.568 19.877 19.568 L 43.63 19.568 C 44.734 19.568 45.631 20.463 45.621 21.568 C 45.499 34.466 43.946 46.761 31.239 46.761 Z"
        fill="none"
        fill-opacity="0.7"
        stroke="#8b93b1"
        stroke-opacity="0.7"
        stroke-width="1.7"
        stroke-linejoin="round"/>
    <path
        id="path_1"
        d="M 34.924 35.74 L 34.924 37.035 L 29.324 37.035 L 29.324 35.74 L 31.375 35.74 L 31.375 29.839 C 31.375 29.606 31.382 29.365 31.396 29.118 L 29.94 30.336 C 29.856 30.401 29.772 30.443 29.688 30.462 C 29.608 30.476 29.531 30.476 29.457 30.462 C 29.387 30.448 29.324 30.425 29.268 30.392 C 29.212 30.355 29.17 30.315 29.142 30.273 L 28.596 29.524 L 31.683 26.899 L 33.104 26.899 L 33.104 35.74 L 34.924 35.74 Z"
        fill="#8b93b1"
        fill-opacity="0.7"
        stroke-opacity="0.7"/>
    <path
        id="path_2"
        d="M 14.35 28 C 14.35 27.531 13.969 27.15 13.5 27.15 C 13.031 27.15 12.65 27.531 12.65 28 L 14.35 28 Z M 15.271 36.437 C 15.513 36.84 16.035 36.97 16.437 36.729 C 16.84 36.487 16.97 35.965 16.729 35.563 L 15.271 36.437 Z M 12.65 28 C 12.65 31.209 13.726 33.862 15.271 36.437 L 16.729 35.563 C 15.274 33.138 14.35 30.791 14.35 28 L 12.65 28 Z"
        fill="#8b93b1"
        fill-opacity="0.7"
        stroke-opacity="0.7"/>
    <path
        id="path_3"
        d="M 49.15 28 C 49.15 27.531 49.531 27.15 50 27.15 C 50.469 27.15 50.85 27.531 50.85 28 L 49.15 28 Z M 48.229 36.437 C 47.987 36.84 47.465 36.97 47.063 36.729 C 46.66 36.487 46.53 35.965 46.771 35.563 L 48.229 36.437 Z M 50.85 28 C 50.85 31.209 49.774 33.862 48.229 36.437 L 46.771 35.563 C 48.226 33.138 49.15 30.791 49.15 28 L 50.85 28 Z"
        fill="#8b93b1"
        fill-opacity="0.7"
        stroke-opacity="0.7"/>
    <path
        id="path_4"
        d="M 41.25 8.25 C 41.25 8.664 41.586 9 42 9 C 42.414 9 42.75 8.664 42.75 8.25 L 42.75 6.75 L 44.25 6.75 C 44.664 6.75 45 6.414 45 6 C 45 5.586 44.664 5.25 44.25 5.25 L 42.75 5.25 L 42.75 3.75 C 42.75 3.336 42.414 3 42 3 C 41.586 3 41.25 3.336 41.25 3.75 L 41.25 5.25 L 39.75 5.25 C 39.336 5.25 39 5.586 39 6 C 39 6.414 39.336 6.75 39.75 6.75 L 41.25 6.75 L 41.25 8.25 Z"
        fill="#8b93b1"
        fill-opacity="0.7"
        stroke-opacity="0.7"
        fill-rule="evenodd"/>
    <path
        id="path_5"
        d="M 10.25 54.25 C 10.25 54.664 10.586 55 11 55 C 11.414 55 11.75 54.664 11.75 54.25 L 11.75 52.75 L 13.25 52.75 C 13.664 52.75 14 52.414 14 52 C 14 51.586 13.664 51.25 13.25 51.25 L 11.75 51.25 L 11.75 49.75 C 11.75 49.336 11.414 49 11 49 C 10.586 49 10.25 49.336 10.25 49.75 L 10.25 51.25 L 8.75 51.25 C 8.336 51.25 8 51.586 8 52 C 8 52.414 8.336 52.75 8.75 52.75 L 10.25 52.75 L 10.25 54.25 Z"
        fill="#8b93b1"
        fill-opacity="0.7"
        stroke-opacity="0.7"
        fill-rule="evenodd"/>
    <path
        id="path_6"
        d="M 5.214 15.214 M 7.428 15.214 C 7.429 15.682 7.282 16.139 7.007 16.519 C 6.733 16.898 6.345 17.181 5.899 17.326 C 5.454 17.471 4.974 17.471 4.528 17.326 C 4.083 17.181 3.695 16.898 3.42 16.519 C 3.146 16.139 2.999 15.682 3 15.214 C 2.999 14.745 3.146 14.288 3.42 13.909 C 3.695 13.529 4.083 13.247 4.528 13.102 C 4.974 12.957 5.454 12.957 5.899 13.102 C 6.345 13.247 6.733 13.529 7.007 13.909 C 7.282 14.288 7.429 14.745 7.428 15.214"
        fill="none"
        fill-opacity="0.7"
        stroke="#8b93b1"
        stroke-opacity="0.7"
        stroke-width="1.5"
        stroke-linecap="round"/>
    <path
        id="path_7"
        d="M 49.528 14.528 M 51.057 14.528 C 51.058 14.852 50.956 15.167 50.766 15.429 C 50.577 15.691 50.309 15.886 50.001 15.986 C 49.694 16.086 49.363 16.086 49.055 15.986 C 48.748 15.886 48.48 15.691 48.29 15.429 C 48.101 15.167 47.999 14.852 48 14.528 C 47.999 14.205 48.101 13.889 48.29 13.627 C 48.48 13.366 48.748 13.17 49.055 13.07 C 49.363 12.97 49.694 12.97 50.001 13.07 C 50.309 13.17 50.577 13.366 50.766 13.627 C 50.956 13.889 51.058 14.205 51.057 14.528"
        fill="none"
        fill-opacity="0.7"
        stroke="#8b93b1"
        stroke-opacity="0.7"
        stroke-width="1.5"
        stroke-linecap="round"/>
    <path
        id="path_8"
        d="M 53.028 50.028 M 53.557 50.028 C 53.557 50.168 53.501 50.303 53.402 50.402 C 53.303 50.501 53.168 50.557 53.028 50.557 C 52.888 50.557 52.754 50.501 52.655 50.402 C 52.556 50.303 52.5 50.168 52.5 50.028 C 52.5 49.888 52.556 49.754 52.655 49.655 C 52.754 49.556 52.888 49.5 53.028 49.5 C 53.168 49.5 53.303 49.556 53.402 49.655 C 53.501 49.754 53.557 49.888 53.557 50.028"
        fill="none"
        fill-opacity="0.7"
        stroke="#8b93b1"
        stroke-opacity="0.7"
        stroke-width="1"/>
    <path
        id="path_9"
        d="M 20.028 9.028 M 20.557 9.028 C 20.557 9.168 20.501 9.303 20.402 9.402 C 20.303 9.501 20.168 9.557 20.028 9.557 C 19.888 9.557 19.754 9.501 19.655 9.402 C 19.556 9.303 19.5 9.168 19.5 9.028 C 19.5 8.888 19.556 8.754 19.655 8.655 C 19.754 8.556 19.888 8.5 20.028 8.5 C 20.168 8.5 20.303 8.556 20.402 8.655 C 20.501 8.754 20.557 8.888 20.557 9.028"
        fill="none"
        fill-opacity="0.7"
        stroke="#8b93b1"
        stroke-opacity="0.7"
        stroke-width="1"/>
</svg>
