<svg
    xmlns="http://www.w3.org/2000/svg"
    viewBox="0 0 24 24"
    id="vector">
    <path
        id="path"
        d="M 16.434 6.246 L 16.434 6.246 C 17.105 6.246 17.749 6.513 18.223 6.987 C 18.697 7.461 18.964 8.105 18.964 8.776 L 18.964 8.946 C 18.964 9.617 18.697 10.261 18.223 10.735 C 17.749 11.209 17.105 11.476 16.434 11.476 L 16.434 11.476 C 15.764 11.476 15.12 11.209 14.645 10.735 C 14.171 10.261 13.905 9.617 13.905 8.946 L 13.905 8.776 C 13.905 8.105 14.171 7.461 14.645 6.987 C 15.12 6.513 15.764 6.246 16.434 6.246 Z"
        fill="#ff5e54"/>
    <path
        id="path_1"
        d="M 9.351 4 C 7.395 4 5.809 5.586 5.809 7.542 L 5.809 7.781 C 5.809 9.737 7.395 11.322 9.351 11.322 C 11.307 11.322 12.893 9.737 12.893 7.781 L 12.893 7.542 C 12.893 5.586 11.307 4 9.351 4 Z M 3.234 14.012 C 3.171 14.093 3.113 14.178 3.062 14.267 L 2.414 15.393 C 1.508 16.969 2.13 18.877 3.879 19.184 C 5.211 19.417 7.009 19.604 9.351 19.604 C 11.693 19.604 13.491 19.417 14.823 19.184 C 16.572 18.877 17.194 16.969 16.288 15.393 L 15.64 14.267 C 15.589 14.178 15.531 14.093 15.468 14.012 C 14.578 12.879 12.554 12.791 11.172 13.095 C 10.664 13.207 10.061 13.279 9.351 13.279 C 8.641 13.279 8.038 13.207 7.529 13.095 C 6.148 12.791 4.124 12.879 3.234 14.012 Z"
        fill="#ff5e54"
        fill-rule="evenodd"/>
    <path
        id="path_2"
        d="M 18.518 17.873 C 18.738 16.844 18.653 15.78 18.25 15.033 C 17.743 14.056 17.305 13.401 16.906 12.964 C 17.245 12.942 17.547 12.897 17.814 12.836 C 18.86 12.596 20.392 12.666 21.066 13.556 C 21.114 13.619 21.157 13.686 21.196 13.756 L 21.686 14.64 C 22.373 15.878 21.901 17.377 20.577 17.617 C 20.007 17.721 19.324 17.813 18.518 17.873 Z"
        fill="#ff5e54"
        fill-rule="evenodd"/>
</svg>
