<svg
    xmlns="http://www.w3.org/2000/svg"
    viewBox="0 0 28 28"
    id="vector">
    <path
        id="path"
        d="M 7.414 20.119 L 7.317 20.317 C 6.895 21.168 7.514 22.167 8.465 22.167 L 19.505 22.167 C 20.455 22.167 21.075 21.168 20.653 20.317 L 20.555 20.119 C 19.318 17.622 16.772 16.042 13.985 16.042 C 11.198 16.042 8.652 17.622 7.414 20.119 Z"
        fill="none"
        stroke="#8b93b1"
        stroke-width="1.7"
        stroke-linecap="round"/>
    <path
        id="path_1"
        d="M 10.501 9.406 C 10.498 10.162 10.733 10.9 11.173 11.512 C 11.612 12.125 12.232 12.581 12.944 12.815 C 13.656 13.049 14.424 13.049 15.136 12.815 C 15.848 12.581 16.468 12.125 16.907 11.512 C 17.346 10.9 17.582 10.162 17.579 9.406 C 17.582 8.65 17.346 7.913 16.907 7.3 C 16.468 6.688 15.848 6.232 15.136 5.998 C 14.424 5.763 13.656 5.763 12.944 5.998 C 12.232 6.232 11.612 6.688 11.173 7.3 C 10.733 7.913 10.498 8.65 10.501 9.406 Z"
        fill="none"
        stroke="#8b93b1"
        stroke-width="1.7"
        stroke-linecap="round"
        stroke-linejoin="round"/>
    <path
        id="path_2"
        d="M 19.6 12.469 C 19.597 13.01 19.764 13.538 20.077 13.977 C 20.391 14.416 20.834 14.743 21.344 14.911 C 21.854 15.079 22.403 15.079 22.913 14.911 C 23.422 14.743 23.866 14.416 24.179 13.977 C 24.493 13.538 24.66 13.01 24.656 12.469 C 24.66 11.928 24.493 11.399 24.179 10.96 C 23.866 10.521 23.422 10.194 22.913 10.026 C 22.403 9.859 21.854 9.859 21.344 10.026 C 20.834 10.194 20.391 10.521 20.077 10.96 C 19.764 11.399 19.597 11.928 19.6 12.469 Z"
        fill="none"
        stroke="#8b93b1"
        stroke-width="1.7"
        stroke-linecap="round"
        stroke-linejoin="round"/>
    <path
        id="path_3"
        d="M 23.025 21.316 C 22.903 21.929 22.633 22.503 22.245 23.016 L 24.107 23.016 C 25.887 23.016 27.019 21.111 26.167 19.548 C 25.389 18.121 23.894 17.233 22.269 17.233 L 21.398 17.233 C 21.999 17.726 22.468 18.319 22.76 18.977 C 23.566 19.124 24.274 19.627 24.674 20.362 C 24.909 20.792 24.597 21.316 24.107 21.316 L 23.025 21.316 Z"
        fill="#8b93b1"
        fill-rule="evenodd"/>
    <path
        id="path_4"
        d="M 8.575 12.469 C 8.579 13.01 8.411 13.538 8.098 13.977 C 7.785 14.416 7.341 14.743 6.831 14.911 C 6.322 15.079 5.772 15.079 5.263 14.911 C 4.753 14.743 4.31 14.416 3.996 13.977 C 3.683 13.538 3.516 13.01 3.519 12.469 C 3.516 11.928 3.683 11.399 3.996 10.96 C 4.31 10.521 4.753 10.194 5.263 10.026 C 5.772 9.859 6.322 9.859 6.831 10.026 C 7.341 10.194 7.785 10.521 8.098 10.96 C 8.411 11.399 8.579 11.928 8.575 12.469 Z"
        fill="none"
        stroke="#8b93b1"
        stroke-width="1.7"
        stroke-linecap="round"
        stroke-linejoin="round"/>
    <path
        id="path_5"
        d="M 4.824 21.316 C 4.866 21.916 5.024 22.488 5.281 23.016 L 3.913 23.016 C 2.133 23.016 1.001 21.111 1.853 19.548 C 2.631 18.121 4.126 17.233 5.751 17.233 L 6.672 17.233 C 6.083 17.723 5.609 18.314 5.287 18.973 C 4.47 19.113 3.75 19.619 3.346 20.362 C 3.111 20.792 3.423 21.316 3.913 21.316 L 4.824 21.316 Z"
        fill="#8b93b1"
        fill-rule="evenodd"/>
</svg>
