<svg
    xmlns="http://www.w3.org/2000/svg"
    viewBox="0 0 24 24"
    id="vector">
    <defs>
        <clipPath id="clip_path_1">
            <path d="M 9.351 4 C 7.395 4 5.809 5.586 5.809 7.542 L 5.809 7.781 C 5.809 9.737 7.395 11.322 9.351 11.322 C 11.307 11.322 12.893 9.737 12.893 7.781 L 12.893 7.542 C 12.893 5.586 11.307 4 9.351 4 Z M 3.234 14.012 C 3.171 14.093 3.113 14.178 3.062 14.267 L 2.414 15.393 C 1.508 16.969 2.13 18.877 3.879 19.184 C 5.211 19.417 7.009 19.604 9.351 19.604 C 11.693 19.604 13.491 19.417 14.823 19.184 C 16.572 18.877 17.194 16.969 16.288 15.393 L 15.64 14.267 C 15.589 14.178 15.531 14.093 15.468 14.012 C 14.578 12.879 12.554 12.791 11.172 13.095 C 10.664 13.207 10.061 13.279 9.351 13.279 C 8.641 13.279 8.038 13.207 7.529 13.095 C 6.148 12.791 4.124 12.879 3.234 14.012 Z"/>
        </clipPath>
    </defs>
    <path
        id="path"
        d="M 16.434 6.896 L 16.434 6.896 C 16.933 6.896 17.411 7.094 17.764 7.446 C 18.116 7.799 18.314 8.277 18.314 8.776 L 18.314 8.946 C 18.314 9.445 18.116 9.923 17.764 10.276 C 17.411 10.628 16.933 10.826 16.434 10.826 L 16.434 10.826 C 15.936 10.826 15.457 10.628 15.105 10.276 C 14.753 9.923 14.555 9.445 14.555 8.946 L 14.555 8.776 C 14.555 8.277 14.753 7.799 15.105 7.446 C 15.457 7.094 15.936 6.896 16.434 6.896 Z"
        fill="#00000000"
        stroke="#8b93b1"
        stroke-width="1.3"
        stroke-linecap="round"
        stroke-linejoin="round"/>
    <g id="group">
        <path
            id="path_1"
            clip-path="url(#clip_path_1)"
            d="M 3.062 14.267 L 4.189 14.915 L 4.189 14.915 L 3.062 14.267 Z M 3.234 14.012 L 2.211 13.209 L 2.211 13.209 L 3.234 14.012 Z M 2.414 15.393 L 1.287 14.745 L 1.287 14.745 L 2.414 15.393 Z M 3.879 19.184 L 4.103 17.903 L 4.103 17.903 L 3.879 19.184 Z M 14.823 19.184 L 14.599 17.903 L 14.823 19.184 Z M 16.288 15.393 L 17.415 14.745 L 17.415 14.745 L 16.288 15.393 Z M 15.64 14.267 L 14.513 14.915 L 14.513 14.915 L 15.64 14.267 Z M 15.468 14.012 L 16.491 13.209 L 16.491 13.209 L 15.468 14.012 Z M 11.172 13.095 L 10.893 11.826 L 10.893 11.826 L 11.172 13.095 Z M 7.529 13.095 L 7.809 11.826 L 7.809 11.826 L 7.529 13.095 Z M 7.109 7.542 C 7.109 6.304 8.113 5.3 9.351 5.3 L 9.351 2.7 C 6.677 2.7 4.509 4.868 4.509 7.542 L 7.109 7.542 Z M 7.109 7.781 L 7.109 7.542 L 4.509 7.542 L 4.509 7.781 L 7.109 7.781 Z M 9.351 10.023 C 8.113 10.023 7.109 9.019 7.109 7.781 L 4.509 7.781 C 4.509 10.455 6.677 12.623 9.351 12.623 L 9.351 10.023 Z M 11.593 7.781 C 11.593 9.019 10.589 10.023 9.351 10.023 L 9.351 12.623 C 12.025 12.623 14.193 10.455 14.193 7.781 L 11.593 7.781 Z M 11.593 7.542 L 11.593 7.781 L 14.193 7.781 L 14.193 7.542 L 11.593 7.542 Z M 9.351 5.3 C 10.589 5.3 11.593 6.304 11.593 7.542 L 14.193 7.542 C 14.193 4.868 12.025 2.7 9.351 2.7 L 9.351 5.3 Z M 4.189 14.915 C 4.209 14.88 4.231 14.847 4.256 14.816 L 2.211 13.209 C 2.11 13.339 2.017 13.476 1.935 13.618 L 4.189 14.915 Z M 3.541 16.041 L 4.189 14.915 L 1.935 13.618 L 1.287 14.745 L 3.541 16.041 Z M 4.103 17.903 C 3.701 17.833 3.478 17.609 3.372 17.317 C 3.254 16.997 3.263 16.525 3.541 16.041 L 1.287 14.745 C 0.659 15.837 0.526 17.108 0.93 18.211 C 1.345 19.345 2.308 20.228 3.655 20.464 L 4.103 17.903 Z M 9.351 18.304 C 7.079 18.304 5.356 18.122 4.103 17.903 L 3.655 20.464 C 5.066 20.711 6.94 20.904 9.351 20.904 L 9.351 18.304 Z M 14.599 17.903 C 13.346 18.122 11.623 18.304 9.351 18.304 L 9.351 20.904 C 11.762 20.904 13.636 20.711 15.047 20.464 L 14.599 17.903 Z M 15.161 16.041 C 15.439 16.525 15.448 16.997 15.33 17.317 C 15.224 17.609 15.001 17.833 14.599 17.903 L 15.047 20.464 C 16.394 20.228 17.357 19.345 17.772 18.211 C 18.176 17.108 18.043 15.837 17.415 14.745 L 15.161 16.041 Z M 14.513 14.915 L 15.161 16.041 L 17.415 14.745 L 16.767 13.618 L 14.513 14.915 Z M 14.446 14.816 C 14.47 14.847 14.493 14.88 14.513 14.915 L 16.767 13.618 C 16.685 13.476 16.592 13.339 16.491 13.209 L 14.446 14.816 Z M 11.452 14.365 C 12.007 14.242 12.693 14.202 13.3 14.298 C 13.93 14.399 14.286 14.612 14.446 14.816 L 16.491 13.209 C 15.76 12.28 14.659 11.882 13.709 11.731 C 12.737 11.576 11.72 11.643 10.893 11.826 L 11.452 14.365 Z M 9.351 14.579 C 10.149 14.579 10.845 14.499 11.452 14.365 L 10.893 11.826 C 10.482 11.916 9.974 11.979 9.351 11.979 L 9.351 14.579 Z M 7.25 14.365 C 7.857 14.499 8.553 14.579 9.351 14.579 L 9.351 11.979 C 8.728 11.979 8.219 11.916 7.809 11.826 L 7.25 14.365 Z M 4.256 14.816 C 4.416 14.612 4.772 14.399 5.402 14.298 C 6.009 14.202 6.695 14.242 7.25 14.365 L 7.809 11.826 C 6.982 11.643 5.965 11.576 4.993 11.731 C 4.043 11.882 2.942 12.28 2.211 13.209 L 4.256 14.816 Z"
            fill="#8b93b1"/>
    </g>
    <path
        id="path_2"
        d="M 18.518 17.873 C 19.324 17.813 20.007 17.721 20.577 17.617 C 21.901 17.377 22.373 15.878 21.686 14.64 L 21.196 13.756 C 21.157 13.686 21.114 13.619 21.066 13.556 C 20.392 12.666 18.86 12.596 17.814 12.836 C 17.547 12.897 17.245 12.942 16.906 12.964 C 17.174 13.257 17.459 13.649 17.771 14.17 C 17.885 14.15 17.996 14.127 18.103 14.103 C 18.486 14.015 18.959 13.987 19.367 14.055 C 19.794 14.125 19.972 14.265 20.03 14.341 C 20.04 14.354 20.05 14.37 20.059 14.386 L 20.549 15.271 C 20.727 15.591 20.724 15.889 20.66 16.07 C 20.606 16.223 20.515 16.308 20.345 16.338 C 19.87 16.425 19.302 16.504 18.632 16.56 C 18.65 16.986 18.612 17.433 18.518 17.873 Z"
        fill="#8b93b1"
        fill-rule="evenodd"/>
</svg>
