<svg
    xmlns="http://www.w3.org/2000/svg"
    viewBox="0 0 24 24"
    id="vector">
    <path
        id="path"
        d="M 11.555 3.874 C 11.74 3.51 12.26 3.51 12.445 3.874 L 14.687 8.27 C 14.788 8.468 14.977 8.607 15.197 8.643 L 20.045 9.433 C 20.445 9.499 20.605 9.989 20.321 10.278 L 16.855 13.794 C 16.7 13.951 16.628 14.174 16.661 14.392 L 17.414 19.286 C 17.476 19.688 17.056 19.992 16.693 19.807 L 12.318 17.58 C 12.118 17.478 11.882 17.478 11.682 17.58 L 7.307 19.807 C 6.944 19.992 6.524 19.689 6.586 19.286 L 7.293 14.689 C 7.355 14.284 7.223 13.872 6.933 13.579 L 3.68 10.278 C 3.395 9.988 3.555 9.498 3.956 9.433 L 8.803 8.643 C 9.023 8.607 9.213 8.468 9.314 8.27 L 11.556 3.874 Z"
        fill="#ff5e54"
        stroke-width="2.3"/>
</svg>
