<svg
    xmlns="http://www.w3.org/2000/svg"
    viewBox="0 0 34 32"
    id="vector">
    <path
        id="path"
        d="M 28.944 15.418 L 28.484 16.471 C 28.044 16.279 27.769 15.833 27.796 15.354 L 28.944 15.418 Z M 20.046 26.894 L 19.904 28.035 L 20.046 26.894 Z M 14.23 13.393 L 15.38 13.395 L 14.23 13.393 Z M 13.345 18.875 L 12.729 19.847 L 13.345 18.875 Z M 12.036 15.919 L 10.903 15.721 L 12.036 15.919 Z M 13.552 19.007 L 12.937 19.978 L 13.552 19.007 Z M 28.274 20.838 L 28.056 19.709 L 28.274 20.839 Z M 30.244 12.76 L 30.093 15.481 L 27.796 15.354 L 27.947 12.632 L 30.244 12.76 Z M 29.405 14.364 L 29.425 14.373 L 28.503 16.48 L 28.483 16.471 L 29.405 14.364 Z M 28.581 21.95 L 28.491 21.967 L 28.056 19.709 L 28.145 19.692 L 28.581 21.95 Z M 12.937 19.978 L 12.729 19.847 L 13.96 17.904 L 14.168 18.036 L 12.937 19.978 Z M 10.903 15.721 L 10.951 15.445 L 13.217 15.84 L 13.169 16.116 L 10.903 15.721 Z M 13.08 13.391 L 13.086 9.992 L 15.386 9.996 L 15.38 13.395 L 13.08 13.391 Z M 21.251 28.145 C 20.765 28.12 20.303 28.085 19.904 28.035 L 20.188 25.753 C 20.51 25.793 20.912 25.824 21.368 25.848 L 21.251 28.145 Z M 19.904 28.035 C 19.541 27.99 19.07 27.902 18.564 27.795 L 19.039 25.545 C 19.53 25.648 19.924 25.72 20.188 25.753 L 19.904 28.035 Z M 13.806 12.501 C 13.384 12.588 13.081 12.959 13.08 13.391 L 15.38 13.395 C 15.379 14.053 14.916 14.62 14.271 14.753 L 13.806 12.501 Z M 10.952 15.445 C 11.209 13.971 12.34 12.803 13.806 12.501 L 14.271 14.753 C 13.731 14.865 13.312 15.296 13.217 15.84 L 10.951 15.445 Z M 12.729 19.847 C 11.342 18.967 10.621 17.339 10.903 15.721 L 13.169 16.116 C 13.047 16.817 13.359 17.523 13.96 17.904 L 12.73 19.847 Z M 12.414 18.87 C 12.359 19.31 12.563 19.741 12.937 19.978 L 14.167 18.036 C 14.545 18.275 14.751 18.71 14.696 19.154 L 12.414 18.87 Z M 14.696 19.154 C 14.324 22.147 16.194 24.944 19.039 25.544 L 18.563 27.794 C 14.445 26.924 11.907 22.939 12.413 18.87 L 14.696 19.154 Z M 29.411 20.984 C 28.905 25.05 25.494 28.361 21.251 28.144 L 21.368 25.848 C 24.259 25.995 26.752 23.723 27.128 20.701 L 29.411 20.985 Z M 28.491 21.967 C 28.979 21.873 29.349 21.477 29.411 20.985 L 27.128 20.701 C 27.19 20.204 27.564 19.804 28.056 19.709 L 28.492 21.967 Z M 31.786 18.525 C 31.571 20.24 30.278 21.623 28.581 21.95 L 28.145 19.692 C 28.865 19.552 29.413 18.967 29.503 18.24 L 31.786 18.525 Z M 29.425 14.373 C 31.045 15.082 32.005 16.771 31.785 18.525 L 29.503 18.24 C 29.596 17.497 29.189 16.78 28.503 16.48 L 29.425 14.373 Z M 23.122 21.468 L 23.02 20.322 C 23.55 20.276 24.043 20.599 24.212 21.103 C 24.381 21.608 24.182 22.163 23.73 22.444 L 23.122 21.468 Z M 18.217 20.858 L 17.337 21.598 C 16.999 21.196 16.976 20.618 17.28 20.191 C 17.584 19.764 18.139 19.596 18.628 19.784 L 18.217 20.858 Z M 22.464 16.418 C 22.531 15.786 23.097 15.328 23.729 15.395 C 24.36 15.462 24.818 16.028 24.751 16.66 L 22.464 16.418 Z M 24.699 17.15 C 24.632 17.782 24.066 18.24 23.435 18.173 C 22.803 18.106 22.345 17.54 22.412 16.908 L 24.699 17.15 Z M 17.834 15.786 C 17.913 15.156 18.487 14.709 19.117 14.787 C 19.747 14.865 20.195 15.44 20.117 16.07 L 17.834 15.786 Z M 20.056 16.561 C 19.977 17.191 19.403 17.638 18.772 17.56 C 18.142 17.482 17.695 16.907 17.773 16.277 L 20.056 16.561 Z M 23.73 22.444 C 21.85 23.616 19.1 23.698 17.336 21.598 L 19.097 20.118 C 19.949 21.132 21.353 21.215 22.513 20.492 L 23.73 22.444 Z M 24.751 16.66 L 24.699 17.15 L 22.412 16.908 L 22.464 16.418 L 24.751 16.66 Z M 20.117 16.07 L 20.056 16.56 L 17.773 16.277 L 17.834 15.787 L 20.117 16.07 Z M 18.628 19.784 C 19.398 20.079 19.968 20.248 20.588 20.331 C 21.212 20.415 21.939 20.418 23.02 20.322 L 23.223 22.613 C 22.055 22.717 21.141 22.726 20.281 22.611 C 19.415 22.494 18.658 22.259 17.805 21.931 L 18.628 19.784 Z"
        fill="#ffffff"/>
    <path
        id="path_1"
        d="M 30.174 12.922 C 30.02 13.539 29.395 13.913 28.779 13.759 C 28.163 13.605 27.789 12.981 27.942 12.365 L 30.174 12.922 Z M 12.985 1.89 L 11.835 1.89 C 11.835 1.464 12.07 1.073 12.447 0.874 C 12.823 0.674 13.279 0.699 13.631 0.939 L 12.985 1.89 Z M 18.288 4.592 L 17.969 5.697 L 18.288 4.592 Z M 24.972 10.998 C 25.595 10.873 26.201 11.278 26.326 11.9 C 26.45 12.523 26.046 13.129 25.424 13.253 L 24.972 10.998 Z M 12.985 6.362 L 14.135 6.362 L 12.985 6.362 Z M 11.835 6.362 L 11.835 1.889 L 14.135 1.889 L 14.135 6.362 L 11.835 6.362 Z M 30.647 10.879 C 30.479 11.641 30.313 12.366 30.174 12.922 L 27.942 12.365 C 28.073 11.839 28.234 11.139 28.402 10.382 L 30.647 10.879 Z M 12.985 1.89 L 13.631 0.939 L 13.637 0.942 C 13.641 0.946 13.649 0.951 13.659 0.957 L 13.751 1.019 C 13.833 1.072 13.953 1.151 14.106 1.248 C 14.412 1.442 14.843 1.708 15.343 1.993 C 16.363 2.575 17.592 3.194 18.607 3.487 L 17.969 5.697 C 16.681 5.325 15.258 4.593 14.203 3.99 C 13.665 3.683 13.203 3.398 12.873 3.19 C 12.709 3.085 12.577 3 12.486 2.94 L 12.38 2.869 L 12.35 2.849 L 12.343 2.844 L 12.34 2.842 L 12.985 1.89 Z M 18.607 3.487 C 20.727 4.099 23.463 4.43 25.817 4.606 L 25.646 6.9 C 23.251 6.72 20.324 6.376 17.969 5.697 L 18.607 3.487 Z M 25.424 13.253 C 22.013 13.935 18.035 12.805 15.492 11.859 L 16.293 9.703 C 18.789 10.631 22.239 11.544 24.973 10.998 L 25.423 13.253 Z M 28.401 10.383 C 28.77 8.719 27.481 7.036 25.646 6.9 L 25.816 4.606 C 28.912 4.836 31.346 7.717 30.647 10.88 L 28.402 10.383 Z M 14.135 6.363 C 14.135 7.898 14.982 9.216 16.293 9.703 L 15.492 11.859 C 13.155 10.991 11.835 8.719 11.835 6.363 L 14.135 6.363 Z"
        fill="#ffffff"/>
    <path
        id="path_2"
        d="M 4.5 13.5 L 4.5 19.5 M 7.5 16.5 L 1.5 16.5"
        fill="#00000000"
        stroke="#ffffff"
        stroke-width="2.3"
        stroke-linecap="round"/>
</svg>
