<svg
    xmlns="http://www.w3.org/2000/svg"
    viewBox="0 0 32 32"
    id="vector">
    <path
        id="path"
        d="M 16 7.971 C 16.521 7.971 16.982 7.712 17.26 7.316 L 21.542 13.84 L 25.765 9.817 L 25.781 9.802 C 25.917 10.514 26.543 11.052 27.294 11.052 C 27.356 11.052 27.418 11.047 27.479 11.04 L 25.846 21.306 L 26.204 23.215 L 26.544 25.031 C 26.666 25.677 26.17 26.274 25.512 26.274 L 6.488 26.274 C 5.83 26.274 5.335 25.677 5.456 25.031 L 6.154 21.306 L 4.521 11.04 C 4.581 11.047 4.644 11.051 4.707 11.051 C 5.457 11.051 6.083 10.514 6.219 9.802 L 6.235 9.817 L 10.459 13.84 L 14.739 7.316 C 15.019 7.712 15.479 7.971 16 7.971 Z M 11.452 15.424 L 16 8.494 L 20.548 15.424 C 20.908 15.972 21.675 16.06 22.15 15.608 L 25.546 12.374 L 24.15 21.15 C 24.13 21.269 24.132 21.39 24.154 21.509 L 24.533 23.528 L 24.729 24.574 L 7.271 24.574 L 7.846 21.508 C 7.868 21.39 7.87 21.268 7.851 21.15 L 6.455 12.374 L 9.85 15.608 C 10.325 16.06 11.093 15.972 11.452 15.424 Z"
        fill="#8b93b1"
        fill-rule="evenodd"/>
    <path
        id="path_1"
        d="M 4.707 9.511 M 3.167 9.511 C 3.167 9.103 3.329 8.711 3.618 8.422 C 3.907 8.133 4.299 7.971 4.707 7.971 C 5.115 7.971 5.507 8.133 5.796 8.422 C 6.085 8.711 6.247 9.103 6.247 9.511 C 6.247 9.919 6.085 10.311 5.796 10.6 C 5.507 10.889 5.115 11.051 4.707 11.051 C 4.299 11.051 3.907 10.889 3.618 10.6 C 3.329 10.311 3.167 9.919 3.167 9.511"
        fill="none"
        stroke="#8b93b1"
        stroke-width="1.7"
        stroke-linecap="round"/>
    <path
        id="path_2"
        d="M 16 6.431 M 14.46 6.431 C 14.46 6.023 14.622 5.631 14.911 5.342 C 15.2 5.053 15.592 4.891 16 4.891 C 16.408 4.891 16.8 5.053 17.089 5.342 C 17.378 5.631 17.54 6.023 17.54 6.431 C 17.54 6.839 17.378 7.231 17.089 7.52 C 16.8 7.809 16.408 7.971 16 7.971 C 15.592 7.971 15.2 7.809 14.911 7.52 C 14.622 7.231 14.46 6.839 14.46 6.431"
        fill="none"
        stroke="#8b93b1"
        stroke-width="1.7"
        stroke-linecap="round"/>
    <path
        id="path_3"
        d="M 27.293 9.511 M 25.753 9.511 C 25.753 9.103 25.915 8.711 26.204 8.422 C 26.493 8.133 26.885 7.971 27.293 7.971 C 27.701 7.971 28.093 8.133 28.382 8.422 C 28.671 8.711 28.833 9.103 28.833 9.511 C 28.833 9.919 28.671 10.311 28.382 10.6 C 28.093 10.889 27.701 11.051 27.293 11.051 C 26.885 11.051 26.493 10.889 26.204 10.6 C 25.915 10.311 25.753 9.919 25.753 9.511"
        fill="none"
        stroke="#8b93b1"
        stroke-width="1.7"
        stroke-linecap="round"/>
</svg>
