<svg
    xmlns="http://www.w3.org/2000/svg"
    viewBox="0 0 32 32"
    id="vector">
    <path
        id="path"
        d="M 14 22.642 L 13.5 22.642 C 11.895 22.642 10.584 23.904 10.504 25.489 C 10.5 25.574 10.569 25.642 10.653 25.642 L 21.347 25.642 C 21.431 25.642 21.5 25.574 21.496 25.489 C 21.416 23.904 20.105 22.642 18.5 22.642 L 17.75 22.642 M 14 22.642 L 14 19.5 M 14 22.642 L 17.75 22.642 M 17.75 22.642 L 17.75 19.5 M 15.759 19.5 C 10.789 19.5 9.518 13.588 9.5 6.654 C 9.5 6.569 9.569 6.5 9.653 6.5 L 22.347 6.5 C 22.431 6.5 22.5 6.569 22.5 6.653 C 22.492 13.102 21.969 19.5 15.759 19.5 Z"
        fill="none"
        stroke="#8b93b1"
        stroke-width="1.5"
        stroke-linecap="round"/>
    <path
        id="path_1"
        d="M 22.5 8.5 L 26.347 8.5 C 26.431 8.5 26.5 8.569 26.5 8.653 C 26.484 13.238 25.738 17.5 20.5 17.5"
        fill="none"
        stroke="#8b93b1"
        stroke-width="1.5"
        stroke-linecap="round"/>
    <path
        id="path_2"
        d="M 9.5 8.5 L 5.653 8.5 C 5.569 8.5 5.5 8.569 5.5 8.653 C 5.516 13.238 6.262 17.5 11.5 17.5"
        fill="none"
        stroke="#8b93b1"
        stroke-width="1.5"
        stroke-linecap="round"/>
</svg>
