<svg
    xmlns="http://www.w3.org/2000/svg"
    viewBox="0 0 16 16"
    id="vector">
    <path
        id="path"
        d="M 11.538 3.72 L 11.557 3.72 C 12.091 3.72 12.604 3.933 12.981 4.31 C 13.359 4.688 13.571 5.201 13.571 5.735 L 13.571 5.735 C 13.571 6.088 13.478 6.436 13.301 6.742 C 13.124 7.048 12.87 7.302 12.564 7.479 C 12.258 7.656 11.91 7.749 11.557 7.749 L 11.538 7.749 C 11.184 7.749 10.837 7.656 10.531 7.479 C 10.224 7.302 9.97 7.048 9.793 6.742 C 9.616 6.436 9.523 6.088 9.523 5.735 L 9.523 5.735 C 9.523 5.381 9.616 5.034 9.793 4.727 C 9.97 4.421 10.224 4.167 10.531 3.99 C 10.837 3.813 11.184 3.72 11.538 3.72 Z"
        fill="#ff5e54"
        fill-opacity="0.7"
        stroke-opacity="0.7"/>
    <path
        id="path_1"
        d="M 5.881 1.991 C 4.323 1.991 3.047 3.253 3.047 4.811 C 3.047 6.368 4.323 7.631 5.881 7.631 C 7.438 7.631 8.714 6.368 8.714 4.811 C 8.714 3.253 7.438 1.991 5.881 1.991 Z M 0.987 9.703 C 0.936 9.765 0.891 9.83 0.85 9.899 L 0.332 10.766 C -0.394 11.98 0.104 13.45 1.503 13.686 C 2.569 13.865 4.008 14.009 5.881 14.009 C 7.754 14.009 9.193 13.865 10.258 13.686 C 11.658 13.45 12.155 11.98 11.43 10.766 L 10.912 9.899 C 10.871 9.83 10.825 9.765 10.775 9.703 C 10.062 8.829 8.443 8.762 7.338 8.996 C 6.931 9.083 6.449 9.137 5.881 9.137 C 5.313 9.137 4.83 9.083 4.423 8.996 C 3.318 8.762 1.7 8.829 0.987 9.703 Z"
        fill="#ff5e54"
        fill-rule="evenodd"/>
    <path
        id="path_2"
        d="M 13.215 12.676 C 13.39 11.884 13.323 11.064 13 10.488 C 12.595 9.736 12.244 9.232 11.925 8.895 C 12.196 8.878 12.437 8.843 12.651 8.796 C 13.488 8.612 14.713 8.665 15.253 9.351 C 15.291 9.4 15.326 9.451 15.357 9.505 L 15.749 10.186 C 16.298 11.139 15.921 12.294 14.862 12.479 C 14.406 12.559 13.86 12.63 13.215 12.676 Z"
        fill="#ff5e54"
        fill-opacity="0.7"
        stroke-opacity="0.7"
        fill-rule="evenodd"/>
</svg>
