<svg
    xmlns="http://www.w3.org/2000/svg"
    viewBox="0 0 68 56"
    id="vector">
    <path
        id="path"
        d="M 13.9 2.09 L 13.9 2.09 C 13.387 1.489 12.514 1.435 11.938 1.961 M 13.899 2.091 L 13.775 4.182 C 7.178 10.207 3.4 18.863 3.4 27.928 C 3.4 28.761 2.753 29.4 2 29.4 C 1.247 29.4 0.6 28.76 0.6 27.928 C 0.6 18.006 4.735 8.541 11.938 1.961 M 13.899 2.091 C 14.422 2.704 14.362 3.645 13.775 4.182 L 13.899 2.09 Z M 11.938 1.961 L 11.533 1.518 L 11.938 1.961 Z M 17.484 7.941 L 17.484 7.941 C 18.066 7.423 18.939 7.488 19.444 8.097 C 19.959 8.718 19.886 9.658 19.292 10.187 C 14.274 14.647 11.4 21.115 11.4 27.928 C 11.4 28.761 10.754 29.4 10 29.4 C 9.246 29.4 8.6 28.76 8.6 27.929 L 8.6 27.929 C 8.6 20.241 11.84 12.957 17.484 7.94 Z M 50.516 7.941 L 50.516 7.941 C 56.16 12.957 59.4 20.241 59.4 27.928 C 59.4 28.761 58.754 29.4 58 29.4 C 57.247 29.4 56.6 28.76 56.6 27.928 C 56.6 21.115 53.726 14.648 48.708 10.187 L 48.708 10.187 C 48.114 9.659 48.042 8.719 48.557 8.097 C 49.062 7.488 49.934 7.423 50.517 7.94 Z M 53.644 1.701 L 54.101 2.091 C 54.613 1.489 55.487 1.435 56.063 1.961 C 63.264 8.54 67.4 18.005 67.4 27.928 C 67.4 28.761 66.753 29.4 66 29.4 C 65.247 29.4 64.6 28.761 64.6 27.929 C 64.6 18.863 60.821 10.207 54.226 4.182 C 53.638 3.645 53.578 2.704 54.101 2.09 L 53.644 1.701 Z"
        fill="#ffc167"
        fill-opacity="0.6"
        stroke="#fffbf2"
        stroke-opacity="0.6"
        stroke-width="1.2"/>
    <path
        id="path_1"
        d="M 16.632 51 C 16.632 50.745 18.305 50.5 21.28 50.32 C 24.254 50.139 28.293 50.038 32.5 50.038 C 36.707 50.038 40.746 50.139 43.72 50.32 C 46.695 50.5 48.368 50.745 48.368 51 C 48.368 51.255 46.695 51.5 43.72 51.68 C 40.746 51.861 36.707 51.962 32.5 51.962 C 28.293 51.962 24.254 51.861 21.28 51.68 C 18.305 51.5 16.632 51.255 16.632 51 Z"
        fill="#404040"
        fill-opacity="0.4"
        stroke-opacity="0.4"/>
    <path
        id="path_2"
        d="M 37.56 40.998 C 37.56 38.242 35.343 36.008 32.608 36.008 C 29.872 36.008 27.655 38.242 27.655 40.998 C 27.655 43.753 29.872 45.988 32.608 45.988 C 35.343 45.988 37.561 43.753 37.561 40.998 Z"
        fill="#f0a44f"/>
    <path
        id="path_3"
        d="M 32.608 36.008 C 32.108 36.008 31.624 36.083 31.168 36.223 C 33.202 36.843 34.682 38.746 34.682 40.998 C 34.682 43.248 33.202 45.151 31.168 45.773 C 31.624 45.912 32.108 45.987 32.608 45.987 C 35.343 45.987 37.561 43.753 37.561 40.997 C 37.561 38.242 35.343 36.007 32.608 36.007 Z"
        fill="#d66a22"
        fill-opacity="0.2"
        stroke-opacity="0.2"/>
    <path
        id="path_4"
        d="M 33.187 11.875 C 31.596 12.197 30.047 11.159 29.727 9.557 C 29.408 7.954 30.439 6.394 32.029 6.072 C 33.619 5.75 35.169 6.788 35.488 8.391 C 35.808 9.993 34.777 11.553 33.187 11.875 Z"
        fill="#ffce73"/>
    <path
        id="path_5"
        d="M 44.659 40.722 L 20.124 40.722 C 17.929 40.722 16.149 38.929 16.149 36.718 C 16.149 35.493 16.699 34.335 17.645 33.566 L 18.433 32.926 C 20.256 31.444 21.317 29.211 21.317 26.851 L 21.317 22.643 C 21.317 16.433 26.313 11.4 32.476 11.4 C 38.639 11.4 43.636 16.434 43.636 22.643 L 43.636 26.929 C 43.636 29.244 44.656 31.44 46.421 32.923 L 47.188 33.567 C 48.104 34.337 48.634 35.477 48.634 36.677 L 48.634 36.717 C 48.634 38.929 46.854 40.722 44.659 40.722 Z"
        fill="#ffd681"/>
    <path
        id="path_6"
        d="M 47.406 33.007 L 46.638 32.363 C 44.873 30.88 43.853 28.684 43.853 26.369 L 43.853 22.082 C 43.853 15.874 38.856 10.84 32.693 10.84 C 31.601 10.84 30.547 10.999 29.549 11.293 C 34.181 12.661 29.095 21.26 29.095 26.369 L 26.819 31.659 C 26.819 33.975 26.405 33.591 28.17 35.074 L 30.944 37.137 C 31.86 37.907 31.727 36.718 31.727 37.919 L 33.577 38.631 C 33.577 40.842 40.783 40.161 38.588 40.161 L 44.877 40.161 C 47.072 40.161 48.851 38.369 48.851 36.158 L 48.851 36.118 C 48.851 34.916 48.321 33.776 47.406 33.008 Z"
        fill="none"/>
    <path
        id="path_7"
        d="M 47.406 33.007 L 46.638 32.363 C 44.873 30.88 43.853 28.684 43.853 26.369 L 43.853 22.082 C 43.853 15.874 38.856 10.84 32.693 10.84 C 31.601 10.84 30.547 10.999 29.549 11.293 C 34.181 12.661 29.095 21.26 29.095 26.369 L 26.819 31.659 C 26.819 33.975 26.405 33.591 28.17 35.074 L 30.944 37.137 C 31.86 37.907 31.727 36.718 31.727 37.919 L 33.577 38.631 C 33.577 40.842 40.783 40.161 38.588 40.161 L 44.877 40.161 C 47.072 40.161 48.851 38.369 48.851 36.158 L 48.851 36.118 C 48.851 34.916 48.321 33.776 47.406 33.008 Z"
        fill="none"/>
    <path
        id="path_8"
        d="M 42.408 14.751 M 37.561 14.751 C 37.561 13.466 38.072 12.232 38.981 11.324 C 39.889 10.415 41.123 9.904 42.408 9.904 C 43.693 9.904 44.927 10.415 45.835 11.324 C 46.744 12.232 47.255 13.466 47.255 14.751 C 47.255 16.036 46.744 17.27 45.835 18.178 C 44.927 19.087 43.693 19.598 42.408 19.598 C 41.123 19.598 39.889 19.087 38.981 18.178 C 38.072 17.27 37.561 16.036 37.561 14.751"
        fill="#e11532"/>
    <path
        id="path_9"
        d="M 41.28 16.223 L 42.243 16.223 L 42.243 13.694 C 42.243 13.57 42.246 13.44 42.253 13.305 L 41.685 13.777 C 41.649 13.807 41.612 13.828 41.575 13.842 C 41.539 13.853 41.503 13.859 41.469 13.859 C 41.409 13.859 41.355 13.847 41.307 13.821 C 41.261 13.794 41.227 13.765 41.204 13.735 L 40.866 13.288 L 42.429 11.977 L 43.309 11.977 L 43.309 16.223 L 44.136 16.223 L 44.136 16.994 L 41.279 16.994 L 41.279 16.224 Z"
        fill="#ffffff"/>
</svg>
