<svg
    xmlns="http://www.w3.org/2000/svg"
    viewBox="0 0 28 28"
    id="vector">
    <path
        id="path"
        d="M 13.182 4.707 L 13.182 4.707 C 14.172 4.707 15.123 5.101 15.823 5.801 C 16.523 6.501 16.917 7.452 16.917 8.442 L 16.917 8.442 C 16.917 9.433 16.523 10.383 15.823 11.084 C 15.123 11.784 14.172 12.178 13.182 12.178 L 13.182 12.178 C 12.191 12.178 11.241 11.784 10.54 11.084 C 9.84 10.383 9.446 9.433 9.446 8.442 L 9.446 8.442 C 9.446 7.452 9.84 6.501 10.54 5.801 C 11.241 5.101 12.191 4.707 13.182 4.707 Z"
        fill="none"
        stroke="#8b93b1"
        stroke-width="1.7"
        stroke-linecap="round"
        stroke-linejoin="round"/>
    <path
        id="path_1"
        d="M 10.899 21.923 C 14.129 22.354 16.562 22.087 18.244 21.676 C 20.001 21.246 20.571 19.337 19.795 17.703 L 19.006 16.042 C 18.961 15.946 18.908 15.854 18.847 15.768 L 18.847 15.768 C 18.131 14.752 16.456 14.589 15.253 14.899 C 14.702 15.041 14.031 15.138 13.225 15.138 C 12.453 15.138 11.605 15.138 10.899 14.944"
        fill="none"
        stroke="#8b93b1"
        stroke-width="1.7"
        stroke-linecap="round"
        stroke-linejoin="round"/>
    <path
        id="path_2"
        d="M 2.883 20.066 C 3 20.77 3.587 22.177 5.346 22.177 C 6.167 22.177 7.809 21.755 7.809 20.066 C 7.809 18.306 6.402 17.954 4.994 17.25 C 3.859 16.683 2.765 15.843 3.235 14.435 C 3.587 13.38 4.642 13.028 5.698 13.028 C 6.754 13.028 7.809 13.731 7.809 15.139"
        fill="none"
        stroke="#8b93b1"
        stroke-width="1.7"
        stroke-linecap="round"/>
    <path
        id="path_3"
        d="M 5.698 13.028 L 5.698 11.62"
        fill="none"
        stroke="#8b93b1"
        stroke-width="1.7"
        stroke-linecap="round"/>
    <path
        id="path_4"
        d="M 5.346 22.177 L 5.346 23.585"
        fill="none"
        stroke="#8b93b1"
        stroke-width="1.7"
        stroke-linecap="round"/>
    <path
        id="path_5"
        d="M 22.483 18.666 C 22.532 19.258 22.516 19.84 22.428 20.38 C 23.153 20.312 23.787 20.199 24.332 20.066 C 25.292 19.831 25.952 19.174 26.246 18.358 C 26.533 17.563 26.464 16.652 26.081 15.847 L 25.48 14.58 C 25.425 14.463 25.359 14.352 25.285 14.246 C 24.842 13.617 24.15 13.314 23.523 13.191 C 22.888 13.067 22.211 13.103 21.638 13.251 C 21.29 13.34 20.85 13.405 20.304 13.405 C 20.231 13.405 20.16 13.405 20.089 13.405 C 20.514 13.825 20.898 14.294 21.229 14.81 C 21.276 14.883 21.321 14.958 21.366 15.034 C 21.616 14.999 21.848 14.952 22.062 14.897 C 22.407 14.808 22.827 14.787 23.196 14.86 C 23.573 14.934 23.793 15.08 23.895 15.226 C 23.914 15.252 23.93 15.28 23.944 15.309 L 24.545 16.576 C 24.754 17.016 24.764 17.456 24.647 17.782 C 24.536 18.087 24.309 18.322 23.929 18.415 C 23.517 18.515 23.035 18.605 22.483 18.666 Z"
        fill="#8b93b1"
        fill-rule="evenodd"/>
    <path
        id="path_6"
        d="M 19.398 10.151 C 19.243 10.706 19.015 11.23 18.724 11.713 C 19.195 11.93 19.718 12.051 20.27 12.051 C 22.313 12.051 23.968 10.395 23.968 8.353 C 23.968 6.31 22.313 4.655 20.27 4.655 C 19.69 4.655 19.14 4.788 18.651 5.027 C 18.952 5.504 19.192 6.023 19.359 6.574 C 19.632 6.434 19.942 6.355 20.27 6.355 C 21.374 6.355 22.268 7.249 22.268 8.353 C 22.268 9.456 21.374 10.351 20.27 10.351 C 19.958 10.351 19.662 10.279 19.398 10.151 Z"
        fill="#8b93b1"
        fill-rule="evenodd"/>
</svg>
