<svg
    xmlns="http://www.w3.org/2000/svg"
    viewBox="0 0 16 16"
    id="vector">
    <path
        id="path"
        d="M 8 2.245 C 3.426 2.245 0.997 6.05 0.199 7.594 C 0.067 7.849 0.065 8.152 0.195 8.409 C 0.984 9.969 3.38 13.755 8 13.755 C 12.574 13.755 15.003 9.951 15.801 8.406 C 15.933 8.151 15.935 7.848 15.805 7.592 C 15.016 6.032 12.618 2.245 8 2.245 Z M 8 11.197 C 6.29 11.197 4.902 9.765 4.902 8 C 4.902 6.235 6.29 4.803 8 4.803 C 9.71 4.803 11.098 6.235 11.098 8 C 11.098 9.765 9.71 11.197 8 11.197 Z"
        fill="#ffffff"/>
    <path
        id="path_1"
        d="M 7.976 6.16 C 7.976 6.648 8.164 7.116 8.498 7.461 C 8.832 7.806 9.286 8 9.759 8 C 10.232 8 10.686 7.806 11.02 7.461 C 11.354 7.116 11.542 6.648 11.542 6.16 C 11.542 5.672 11.354 5.204 11.02 4.859 C 10.686 4.514 10.232 4.32 9.759 4.32 C 9.286 4.32 8.832 4.514 8.498 4.859 C 8.164 5.204 7.976 5.672 7.976 6.16 Z"
        fill="#ffffff"/>
</svg>
