<svg
    xmlns="http://www.w3.org/2000/svg"
    viewBox="0 0 26 26"
    id="vector">
    <path
        id="path"
        d="M 13 0.9 C 9.72 0.9 9.3 0.92 8.02 0.98 C 6.72 1.04 5.85 1.24 5.08 1.54 C 4.28 1.85 3.61 2.27 2.94 2.94 C 2.27 3.61 1.85 4.28 1.54 5.08 C 1.24 5.85 1.04 6.73 0.98 8 C 0.92 9.31 0.91 9.71 0.91 13 C 0.91 16.28 0.92 16.7 0.98 17.98 C 1.04 19.28 1.24 20.15 1.54 20.92 C 1.85 21.72 2.27 22.39 2.94 23.06 C 3.61 23.73 4.28 24.15 5.08 24.46 C 5.85 24.76 6.73 24.96 8.01 25.02 C 9.31 25.08 9.71 25.09 13 25.09 C 16.28 25.09 16.7 25.08 17.98 25.02 C 19.28 24.96 20.15 24.75 20.92 24.46 C 21.72 24.15 22.39 23.73 23.06 23.06 C 23.73 22.39 24.15 21.71 24.46 20.92 C 24.76 20.15 24.96 19.27 25.02 17.98 C 25.07 16.69 25.09 16.28 25.09 13 C 25.09 9.72 25.07 9.3 25.02 8.01 C 24.96 6.73 24.75 5.85 24.46 5.08 C 24.15 4.28 23.73 3.61 23.06 2.94 C 22.39 2.27 21.71 1.85 20.92 1.54 C 20.15 1.24 19.27 1.04 17.98 0.98 C 16.69 0.92 16.28 0.91 13 0.91 Z M 11.92 3.1 L 13 3.1 C 16.23 3.1 16.61 3.1 17.89 3.17 C 19.07 3.22 19.7 3.42 20.13 3.58 C 20.7 3.8 21.1 4.06 21.52 4.48 C 21.94 4.91 22.21 5.31 22.42 5.88 C 22.59 6.3 22.79 6.94 22.84 8.12 C 22.9 9.4 22.91 9.78 22.91 13.01 C 22.91 16.23 22.9 16.61 22.84 17.89 C 22.79 19.07 22.59 19.71 22.43 20.14 C 22.21 20.7 21.94 21.1 21.52 21.52 C 21.1 21.95 20.7 22.21 20.13 22.42 C 19.71 22.59 19.07 22.79 17.89 22.84 C 16.61 22.9 16.23 22.92 13 22.92 C 9.77 22.92 9.39 22.9 8.11 22.84 C 6.94 22.79 6.3 22.59 5.87 22.43 C 5.31 22.21 4.9 21.95 4.47 21.53 C 4.06 21.1 3.79 20.7 3.57 20.13 C 3.41 19.71 3.21 19.07 3.16 17.89 C 3.1 16.62 3.09 16.23 3.09 13 C 3.09 9.78 3.1 9.4 3.16 8.12 C 3.2 6.93 3.4 6.29 3.57 5.86 C 3.8 5.3 4.06 4.9 4.47 4.47 C 4.9 4.05 5.31 3.79 5.87 3.57 C 6.3 3.4 6.94 3.21 8.11 3.15 C 9.23 3.1 9.66 3.09 11.91 3.08 Z M 19.45 5.1 C 18.65 5.1 18 5.75 18 6.56 C 18 7.35 18.65 8 19.45 8 C 20.25 8 20.91 7.35 20.91 6.55 C 20.91 5.75 20.26 5.09 19.45 5.09 Z M 13 6.8 C 9.57 6.8 6.8 9.58 6.8 13 C 6.8 16.44 9.57 19.22 13 19.22 C 16.43 19.22 19.2 16.44 19.2 13.01 C 19.2 9.58 16.43 6.8 13 6.8 Z M 13 8.98 C 15.23 8.98 17.03 10.78 17.03 13.01 C 17.03 15.24 15.23 17.04 13 17.04 C 10.77 17.04 8.97 15.24 8.97 13.01 C 8.97 10.78 10.77 8.98 13 8.98 Z"
        fill="#8b93b1"/>
</svg>
