<svg width="12" height="10" viewBox="0 0 12 10" fill="none" xmlns="http://www.w3.org/2000/svg">
<path d="M1.33319 3.83333L0.80286 4.36366L0.27253 3.83333L0.80286 3.303L1.33319 3.83333ZM11.4165 8.5C11.4165 8.91421 11.0807 9.25 10.6665 9.25C10.2523 9.25 9.91652 8.91421 9.91652 8.5L11.4165 8.5ZM3.71953 7.28033L0.80286 4.36366L1.86352 3.303L4.78019 6.21967L3.71953 7.28033ZM0.80286 3.303L3.71953 0.386336L4.78019 1.447L1.86352 4.36366L0.80286 3.303ZM1.33319 3.08333L5.99986 3.08333L5.99986 4.58333L1.33319 4.58333L1.33319 3.08333ZM5.99986 3.08333C8.9914 3.08333 11.4165 5.50846 11.4165 8.5L9.91652 8.5C9.91652 6.33688 8.16297 4.58333 5.99986 4.58333L5.99986 3.08333Z" fill="#CCD2E3"/>
</svg>
