<svg
    xmlns="http://www.w3.org/2000/svg"
    viewBox="0 0 26 26"
    id="vector">
    <path
        id="path"
        d="M 19.12 24.25 C 18.82 24.25 18.52 24.09 18.35 23.81 C 18.1 23.39 18.23 22.84 18.65 22.59 C 22.01 20.59 24.1 16.91 24.1 13 C 24.1 6.85 19.09 1.84 12.93 1.84 C 12.43 1.84 12.03 1.44 12.03 0.94 C 12.03 0.45 12.43 0.05 12.93 0.05 C 20.07 0.05 25.88 5.86 25.88 13 C 25.88 17.53 23.47 21.8 19.58 24.12 C 19.43 24.21 19.28 24.25 19.12 24.25 Z M 4.12 4.93 C 4.29 5.06 4.49 5.13 4.69 5.13 C 4.94 5.13 5.2 5.02 5.38 4.8 L 5.58 4.55 C 5.92 4.18 5.89 3.62 5.5 3.3 C 5.13 2.97 4.56 3.01 4.24 3.38 L 4 3.67 C 3.68 4.05 3.74 4.6 4.12 4.92 Z M 0.94 12.7 L 0.84 12.7 C 0.36 12.64 0 12.2 0.04 11.72 C 0.19 10.27 0.57 8.86 1.19 7.54 C 1.39 7.1 1.93 6.9 2.37 7.11 C 2.82 7.32 3.02 7.85 2.81 8.3 C 2.28 9.43 1.95 10.64 1.83 11.9 C 1.78 12.35 1.39 12.7 0.93 12.7 Z M 4.03 22.4 C 4.2 22.57 4.43 22.65 4.64 22.65 C 4.88 22.65 5.12 22.55 5.29 22.37 C 5.63 22.01 5.62 21.45 5.26 21.11 C 3.69 19.62 2.59 17.73 2.09 15.65 C 1.97 15.17 1.49 14.87 1.01 14.99 C 0.53 15.1 0.23 15.59 0.35 16.07 C 0.94 18.49 2.21 20.68 4.03 22.41 Z M 6.84 24.43 C 8.7 25.43 10.81 25.95 12.94 25.95 C 13.93 25.95 14.92 25.84 15.89 25.62 C 16.37 25.5 16.67 25.02 16.55 24.54 C 16.45 24.06 15.96 23.76 15.48 23.87 C 14.65 24.07 13.79 24.17 12.93 24.17 C 11.1 24.17 9.29 23.71 7.68 22.86 C 7.25 22.63 6.71 22.79 6.48 23.23 C 6.24 23.66 6.41 24.2 6.84 24.43 Z M 13.85 12.16 L 18.97 12.16 L 18.97 13.94 L 13.85 13.94 L 13.85 19.06 L 12.07 19.06 L 12.07 13.94 L 6.95 13.94 L 6.95 12.16 L 12.07 12.16 L 12.07 7.04 L 13.85 7.04 L 13.85 12.16 Z"
        fill="#ffffff"
        fill-rule="evenodd"/>
</svg>
