<svg
    xmlns="http://www.w3.org/2000/svg"
    viewBox="0 0 28 28"
    id="vector">
    <path
        id="path"
        d="M 20.825 15.75 L 23.8 15.75 C 23.986 15.75 24.164 15.824 24.295 15.955 C 24.426 16.086 24.5 16.264 24.5 16.45 L 24.5 22.05 C 24.5 22.236 24.426 22.414 24.295 22.545 C 24.164 22.676 23.986 22.75 23.8 22.75 L 20.825 22.75 C 20.639 22.75 20.461 22.676 20.33 22.545 C 20.199 22.414 20.125 22.236 20.125 22.05 L 20.125 16.45 C 20.125 16.264 20.199 16.086 20.33 15.955 C 20.461 15.824 20.639 15.75 20.825 15.75 Z"
        fill="none"
        stroke="#8b93b1"
        stroke-width="1.7"/>
    <path
        id="path_1"
        d="M 12.95 6.125 L 15.925 6.125 C 16.111 6.125 16.289 6.199 16.42 6.33 C 16.551 6.461 16.625 6.639 16.625 6.825 L 16.625 22.05 C 16.625 22.236 16.551 22.414 16.42 22.545 C 16.289 22.676 16.111 22.75 15.925 22.75 L 12.95 22.75 C 12.764 22.75 12.586 22.676 12.455 22.545 C 12.324 22.414 12.25 22.236 12.25 22.05 L 12.25 6.825 C 12.25 6.639 12.324 6.461 12.455 6.33 C 12.586 6.199 12.764 6.125 12.95 6.125 Z"
        fill="none"
        stroke="#8b93b1"
        stroke-width="1.7"/>
    <path
        id="path_2"
        d="M 5.075 11.375 L 8.05 11.375 C 8.236 11.375 8.414 11.449 8.545 11.58 C 8.676 11.711 8.75 11.889 8.75 12.075 L 8.75 22.05 C 8.75 22.236 8.676 22.414 8.545 22.545 C 8.414 22.676 8.236 22.75 8.05 22.75 L 5.075 22.75 C 4.889 22.75 4.711 22.676 4.58 22.545 C 4.449 22.414 4.375 22.236 4.375 22.05 L 4.375 12.075 C 4.375 11.952 4.407 11.831 4.469 11.725 C 4.53 11.619 4.619 11.53 4.725 11.469 C 4.831 11.407 4.952 11.375 5.075 11.375 Z"
        fill="none"
        stroke="#8b93b1"
        stroke-width="1.7"/>
</svg>
