<svg
    xmlns="http://www.w3.org/2000/svg"
    viewBox="0 0 24 24"
    id="vector">
    <path
        id="path"
        d="M 12 0 C 8.74 0 8.33 0.01 7.05 0.07 C 5.78 0.13 4.9 0.33 4.15 0.63 C 3.34 0.93 2.67 1.35 2 2.01 C 1.35 2.68 0.94 3.35 0.63 4.14 C 0.33 4.9 0.13 5.77 0.07 7.05 C 0.01 8.33 0 8.75 0 12 C 0 13.87 0 14.8 0.02 15.5 C 0.61 14.3 1.32 13.42 2.16 12.81 L 2.16 12 C 2.16 8.8 2.18 8.42 2.23 7.16 C 2.29 5.99 2.48 5.36 2.65 4.93 C 2.86 4.37 3.12 3.97 3.55 3.55 C 3.96 3.13 4.36 2.87 4.92 2.65 C 5.35 2.49 5.98 2.29 7.15 2.24 C 8.25 2.19 8.69 2.17 10.92 2.17 L 11.6 2.17 L 12 2.17 C 15.2 2.17 15.58 2.18 16.85 2.24 C 18.02 2.3 18.65 2.49 19.08 2.65 C 19.64 2.87 20.04 3.13 20.46 3.55 C 20.88 3.97 21.14 4.37 21.36 4.93 C 21.52 5.35 21.72 5.99 21.76 7.16 C 21.83 8.42 21.84 8.8 21.84 12.01 C 21.84 15.21 21.83 15.59 21.77 16.85 C 21.72 18.02 21.52 18.66 21.36 19.08 C 21.14 19.64 20.88 20.04 20.46 20.46 C 20.04 20.88 19.64 21.14 19.08 21.36 C 18.66 21.52 18.02 21.72 16.85 21.77 C 15.59 21.83 15.21 21.84 12 21.84 C 8.8 21.84 8.42 21.83 7.15 21.77 C 5.98 21.72 5.35 21.52 4.92 21.36 C 4.53 21.2 4.22 21.03 3.92 20.79 C 3.52 21.59 3.42 22.35 3.44 23.06 C 3.67 23.18 3.9 23.29 4.14 23.38 C 4.9 23.68 5.77 23.88 7.05 23.94 C 8.33 23.99 8.75 24 12 24 C 15.26 24 15.67 23.99 16.95 23.93 C 18.22 23.87 19.1 23.67 19.86 23.37 C 20.65 23.07 21.32 22.65 21.99 21.98 C 22.65 21.32 23.06 20.65 23.37 19.86 C 23.67 19.1 23.87 18.22 23.93 16.95 C 23.98 15.67 24 15.25 24 12 C 24 8.74 23.98 8.33 23.93 7.05 C 23.87 5.77 23.66 4.9 23.37 4.14 C 23.07 3.35 22.65 2.68 21.98 2.01 C 21.32 1.35 20.65 0.94 19.86 0.63 C 19.09 0.33 18.22 0.13 16.94 0.07 C 15.66 0.01 15.26 0 12 0 Z M 12 18.16 C 11.54 18.16 11.08 18.11 10.64 18.01 L 11.66 16 L 12 16 C 14.21 16 16 14.2 16 12 C 16 9.8 14.21 8 12 8 C 10.5 8 9.2 8.82 8.52 10.03 L 6.49 9.23 C 7.5 7.23 9.59 5.83 12 5.83 C 15.4 5.83 18.16 8.6 18.16 12 C 18.16 15.4 15.4 18.16 12 18.16 Z M 18.4 4.16 C 17.61 4.16 16.97 4.8 16.97 5.59 C 16.97 6.39 17.61 7.03 18.41 7.03 C 19.21 7.03 19.85 6.39 19.85 5.59 C 19.85 4.8 19.2 4.15 18.41 4.15 Z M 4.3 10.07 L 5.4 12.6 C 4.29 13.03 2.07 14.14 1.19 16.39 C 0.48 18.22 1.31 20.11 2.04 21.76 L 2.17 22.06 C 2.17 22.06 2.28 18.4 7.19 16.67 L 8.27 19.15 L 10 15.7 L 11.43 12.85 L 8.26 11.62 L 4.31 10.07 Z"
        fill="#ffffff"
        fill-rule="evenodd"/>
</svg>
