<svg
    xmlns="http://www.w3.org/2000/svg"
    viewBox="0 0 76 74"
    id="vector">
    <path
        id="path"
        d="M 35.156 2.271 C 36.306 0.334 39.115 0.334 40.296 2.271 L 51.208 20.171 C 51.632 20.867 52.319 21.363 53.112 21.546 L 73.501 26.26 C 75.708 26.77 76.597 29.442 75.128 31.149 L 61.555 46.925 C 61.027 47.539 60.772 48.342 60.849 49.151 L 62.816 69.964 C 63.029 72.217 60.77 73.868 58.681 72.986 L 39.381 64.836 C 38.63 64.519 37.786 64.519 37.04 64.836 L 17.867 72.986 C 15.791 73.868 13.506 72.217 13.684 69.964 L 15.329 49.151 C 15.393 48.342 15.126 47.539 14.589 46.925 L 0.771 31.149 C -0.724 29.442 0.123 26.77 2.322 26.26 L 22.639 21.546 C 23.429 21.363 24.108 20.867 24.522 20.171 L 35.156 2.271 Z"
        fill="#ff5e54"/>
</svg>
