<svg
    xmlns="http://www.w3.org/2000/svg"
    viewBox="0 0 16 16"
    id="vector">
    <path
        id="path"
        d="M 10.183 2.223 C 10.678 1.887 11.135 1.92 11.469 2.1 C 11.828 2.293 12.059 2.66 12.07 3.03 C 12.08 3.366 11.912 3.834 11.196 4.242 L 11.823 5.342 C 12.862 4.751 13.364 3.886 13.337 2.992 C 13.31 2.134 12.794 1.375 12.069 0.985 C 11.32 0.581 10.358 0.573 9.472 1.175 C 8.717 1.687 8.062 2.608 7.583 4 L 8.934 4 C 9.326 3.034 9.782 2.495 10.184 2.223 Z"
        fill="#00c5da"/>
    <path
        id="path_1"
        d="M 5.854 2.223 C 5.36 1.887 4.903 1.92 4.57 2.1 C 4.211 2.293 3.98 2.66 3.968 3.03 C 3.958 3.366 4.127 3.834 4.843 4.242 L 4.216 5.342 C 3.176 4.751 2.674 3.886 2.702 2.992 C 2.729 2.134 3.245 1.375 3.969 0.985 C 4.719 0.581 5.681 0.573 6.567 1.175 C 7.322 1.687 7.977 2.608 8.456 4 L 7.103 4 C 6.712 3.034 6.256 2.495 5.854 2.223 Z"
        fill="#00c5da"/>
    <path
        id="path_2"
        d="M 7.333 8.666 L 7.333 15.333 L 8.667 15.333 L 8.667 8.666 L 14.667 8.666 L 14.667 13.252 C 14.667 14.402 13.782 15.333 12.69 15.333 L 3.31 15.333 C 2.218 15.333 1.333 14.401 1.333 13.252 L 1.333 8.666 L 7.333 8.666 Z M 8.633 7.333 L 14.028 7.333 C 14.748 7.333 15.333 6.84 15.333 6.232 L 15.333 5.102 C 15.333 4.493 14.749 4 14.027 4 L 8.633 4 L 8.633 7.333 Z M 7.367 4 L 1.973 4 C 1.25 4 0.667 4.493 0.667 5.102 L 0.667 6.232 C 0.667 6.84 1.251 7.333 1.973 7.333 L 7.367 7.333 L 7.367 4 Z"
        fill="#00c5da"
        fill-rule="evenodd"/>
</svg>
