<svg
    xmlns="http://www.w3.org/2000/svg"
    viewBox="0 0 16 16"
    id="vector">
    <path
        id="path"
        d="M 1.333 12.667 L 5.333 12.667 M 3.333 14.667 L 3.333 10.667"
        fill="#00000000"
        stroke="#ffffff"
        stroke-width="1.333"
        stroke-linecap="round"
        stroke-linejoin="round"/>
    <path
        id="path_1"
        d="M 8.969 1.333 L 8.969 1.333 C 9.439 1.333 9.9 1.457 10.307 1.692 C 10.714 1.926 11.052 2.264 11.286 2.671 C 11.521 3.078 11.645 3.539 11.645 4.009 L 11.645 4.009 C 11.645 4.479 11.521 4.94 11.286 5.347 C 11.052 5.754 10.714 6.092 10.307 6.326 C 9.9 6.561 9.439 6.685 8.969 6.685 L 8.969 6.685 C 8.26 6.685 7.578 6.403 7.077 5.901 C 6.575 5.4 6.293 4.718 6.293 4.009 L 6.293 4.009 C 6.293 3.3 6.575 2.618 7.077 2.117 C 7.578 1.615 8.26 1.333 8.969 1.333 Z"
        fill="#00000000"
        stroke="#ffffff"
        stroke-width="1.333"
        stroke-linecap="round"
        stroke-linejoin="round"/>
    <path
        id="path_2"
        d="M 7.443 13.01 C 7.08 12.949 6.736 13.194 6.676 13.557 C 6.616 13.92 6.861 14.264 7.224 14.324 L 7.443 13.009 Z M 4.295 8.251 C 3.99 8.456 3.908 8.871 4.113 9.176 C 4.318 9.482 4.733 9.564 5.038 9.359 L 4.295 8.251 Z M 13.648 10.521 L 13.046 10.806 L 13.648 10.52 Z M 13.141 9.452 L 12.539 9.738 L 13.141 9.452 Z M 12.539 9.738 L 13.046 10.806 L 14.251 10.234 L 13.744 9.167 L 12.539 9.738 Z M 12.267 12.787 C 10.999 13.097 9.291 13.317 7.443 13.008 L 7.223 14.323 C 9.301 14.67 11.197 14.42 12.583 14.082 L 12.267 12.787 Z M 7.076 9.177 C 7.572 9.351 8.204 9.472 9 9.472 L 9 8.139 C 8.34 8.139 7.859 8.039 7.518 7.919 L 7.076 9.178 Z M 9 9.473 C 9.63 9.473 10.167 9.397 10.619 9.281 L 10.286 7.99 C 9.948 8.077 9.523 8.14 9 8.14 L 9 9.473 Z M 4.653 8.013 L 4.295 8.253 L 5.038 9.36 L 5.395 9.12 L 4.653 8.013 Z M 13.572 8.873 C 13.182 8.32 12.569 8.047 11.999 7.936 C 11.423 7.823 10.807 7.856 10.286 7.99 L 10.619 9.28 C 10.96 9.193 11.375 9.172 11.742 9.244 C 12.116 9.317 12.359 9.467 12.482 9.641 L 13.572 8.873 Z M 7.518 7.92 C 7.122 7.78 6.643 7.661 6.156 7.64 C 5.674 7.62 5.125 7.696 4.653 8.013 L 5.395 9.12 C 5.548 9.017 5.78 8.96 6.1 8.973 C 6.416 8.986 6.761 9.067 7.076 9.178 L 7.518 7.92 Z M 13.046 10.807 C 13.47 11.7 13.054 12.595 12.266 12.787 L 12.583 14.083 C 14.359 13.649 14.958 11.727 14.251 10.235 L 13.046 10.807 Z M 13.744 9.167 C 13.694 9.065 13.637 8.967 13.572 8.873 L 12.482 9.641 C 12.504 9.672 12.522 9.705 12.539 9.739 L 13.744 9.168 Z"
        fill="#ffffff"/>
</svg>
