<svg
    xmlns="http://www.w3.org/2000/svg"
    viewBox="0 0 32 32"
    id="vector">
    <path
        id="path"
        d="M 13.862 5.167 L 13.862 5.167 C 14.684 5.167 15.492 5.383 16.203 5.794 C 16.915 6.205 17.507 6.797 17.918 7.508 C 18.329 8.22 18.545 9.028 18.545 9.85 L 18.545 9.85 C 18.545 10.672 18.329 11.48 17.918 12.191 C 17.507 12.903 16.915 13.495 16.203 13.906 C 15.492 14.317 14.684 14.533 13.862 14.533 L 13.862 14.533 C 12.62 14.533 11.429 14.039 10.551 13.161 C 9.673 12.283 9.179 11.092 9.179 9.85 L 9.179 9.85 C 9.179 8.608 9.673 7.417 10.551 6.539 C 11.429 5.661 12.62 5.167 13.862 5.167 Z"
        fill="#00000000"
        stroke="#ffffff"
        stroke-width="2.333"
        stroke-linecap="round"
        stroke-linejoin="round"/>
    <path
        id="path_1"
        d="M 13.95 18.333 C 14.964 18.333 15.806 18.206 16.495 18.017 C 17.978 17.612 20.082 17.783 20.968 19.039 L 20.968 19.039 C 21.041 19.144 21.106 19.255 21.161 19.37 L 22.141 21.436 C 23.117 23.49 22.398 25.905 20.209 26.52 C 18.627 26.964 16.535 27.333 13.951 27.333 M 13.45 18.333 C 12.24 18.333 11.22 18.151 10.39 17.901 C 8.832 17.431 6.823 17.681 5.886 19.011 L 5.886 19.011 C 5.798 19.134 5.722 19.265 5.657 19.401 L 4.732 21.352 C 3.749 23.422 4.54 25.859 6.752 26.464 C 8.464 26.934 10.725 27.334 13.451 27.334"
        fill="#00000000"
        stroke="#ffffff"
        stroke-width="2.333"
        stroke-linecap="round"
        stroke-linejoin="round"/>
    <path
        id="path_2"
        d="M 24.367 24.917 L 24.367 24.833 C 24.487 24.121 24.503 23.349 24.43 22.566 C 25.118 22.49 25.717 22.379 26.228 22.254 C 26.67 22.145 26.93 21.877 27.058 21.524 C 27.194 21.144 27.186 20.62 26.934 20.089 L 26.18 18.502 C 26.166 18.47 26.148 18.44 26.128 18.412 C 26.02 18.258 25.772 18.084 25.314 17.994 C 24.867 17.907 24.356 17.931 23.938 18.039 C 23.676 18.107 23.395 18.164 23.093 18.208 C 23.02 18.08 22.945 17.955 22.867 17.833 C 22.427 17.144 21.909 16.523 21.335 15.97 L 21.708 15.97 C 22.384 15.97 22.928 15.89 23.355 15.78 C 24.087 15.591 24.951 15.546 25.763 15.705 C 26.564 15.861 27.459 16.25 28.035 17.068 C 28.132 17.205 28.216 17.35 28.288 17.501 L 29.042 19.089 C 29.532 20.121 29.622 21.29 29.252 22.316 C 28.872 23.368 28.02 24.218 26.782 24.52 C 26.091 24.69 25.287 24.832 24.367 24.917 Z M 20.6 11.892 C 20.397 12.659 20.082 13.379 19.675 14.037 C 20.281 14.317 20.955 14.474 21.666 14.474 C 24.283 14.474 26.404 12.354 26.404 9.737 C 26.404 7.121 24.283 5 21.666 5 C 20.918 5 20.211 5.173 19.582 5.482 C 20.003 6.132 20.333 6.845 20.553 7.606 C 20.886 7.432 21.265 7.333 21.666 7.333 C 22.994 7.333 24.07 8.41 24.07 9.737 C 24.07 11.065 22.994 12.141 21.666 12.141 C 21.283 12.141 20.922 12.051 20.6 11.892 Z"
        fill="#ffffff"
        fill-rule="evenodd"/>
</svg>
