<svg
    xmlns="http://www.w3.org/2000/svg"
    viewBox="0 0 32 32"
    id="vector">
    <path
        id="path"
        d="M 8.473 22.993 L 8.316 23.312 C 7.855 24.242 8.532 25.333 9.57 25.333 L 22.395 25.333 C 23.433 25.333 24.11 24.242 23.649 23.312 L 23.492 22.993 C 22.078 20.139 19.168 18.333 15.982 18.333 C 12.797 18.333 9.887 20.139 8.473 22.993 Z"
        fill="#8b93b1"
        stroke="#8b93b1"
        stroke-width="1.7"
        stroke-linecap="round"/>
    <path
        id="path_1"
        d="M 12 10.75 C 11.996 11.615 12.264 12.459 12.765 13.16 C 13.267 13.862 13.977 14.384 14.791 14.652 C 15.606 14.92 16.484 14.92 17.299 14.652 C 18.114 14.384 18.823 13.862 19.325 13.16 C 19.826 12.459 20.094 11.615 20.09 10.75 C 20.094 9.885 19.826 9.041 19.325 8.339 C 18.823 7.638 18.114 7.115 17.299 6.847 C 16.484 6.579 15.606 6.579 14.791 6.847 C 13.977 7.115 13.267 7.638 12.765 8.339 C 12.264 9.041 11.996 9.885 12 10.75 Z"
        fill="#8b93b1"
        stroke="#8b93b1"
        stroke-width="1.7"/>
    <path
        id="path_2"
        d="M 22.339 14.25 C 22.337 14.867 22.529 15.469 22.887 15.969 C 23.246 16.469 23.752 16.841 24.334 17.032 C 24.915 17.223 25.542 17.223 26.123 17.032 C 26.704 16.841 27.211 16.469 27.569 15.969 C 27.927 15.469 28.12 14.867 28.118 14.25 C 28.12 13.633 27.927 13.03 27.569 12.531 C 27.211 12.031 26.704 11.658 26.123 11.467 C 25.542 11.276 24.915 11.276 24.334 11.467 C 23.752 11.658 23.246 12.031 22.887 12.531 C 22.529 13.03 22.337 13.633 22.339 14.25 Z"
        fill="#8b93b1"
        stroke="#8b93b1"
        stroke-width="1.7"/>
    <path
        id="path_3"
        d="M 9.8 14.25 C 9.802 14.867 9.61 15.469 9.251 15.969 C 8.893 16.469 8.386 16.841 7.805 17.032 C 7.224 17.223 6.597 17.223 6.016 17.032 C 5.435 16.841 4.928 16.469 4.57 15.969 C 4.211 15.469 4.019 14.867 4.021 14.25 C 4.019 13.633 4.211 13.03 4.57 12.531 C 4.928 12.031 5.435 11.658 6.016 11.467 C 6.597 11.276 7.224 11.276 7.805 11.467 C 8.386 11.658 8.893 12.031 9.251 12.531 C 9.61 13.03 9.802 13.633 9.8 14.25 Z"
        fill="#8b93b1"
        stroke="#8b93b1"
        stroke-width="1.7"/>
    <path
        id="path_4"
        d="M 5.89 26.091 C 5.637 25.488 5.5 24.841 5.5 24.166 C 5.5 22.486 6.352 20.972 7.716 19.908 L 6.572 19.908 C 4.793 19.908 3.155 20.88 2.304 22.443 C 1.408 24.087 2.598 26.091 4.471 26.091 L 5.89 26.091 Z"
        fill="#8b93b1"
        fill-rule="evenodd"/>
    <path
        id="path_5"
        d="M 25.993 26.091 C 26.246 25.488 26.383 24.841 26.383 24.167 C 26.383 22.486 25.531 20.972 24.166 19.908 L 25.424 19.908 C 27.203 19.908 28.84 20.88 29.692 22.443 C 30.588 24.087 29.398 26.091 27.525 26.091 L 25.993 26.091 Z"
        fill="#8b93b1"
        fill-rule="evenodd"/>
</svg>
