<svg
    xmlns="http://www.w3.org/2000/svg"
    viewBox="0 0 32 32"
    id="vector">
    <path
        id="path"
        d="M 14.833 14.833 M 7.833 14.833 C 7.833 13.355 8.301 11.914 9.17 10.719 C 10.039 9.523 11.264 8.632 12.67 8.176 C 14.076 7.719 15.59 7.719 16.996 8.176 C 18.402 8.632 19.627 9.523 20.496 10.719 C 21.365 11.914 21.833 13.355 21.833 14.833 C 21.833 16.689 21.095 18.47 19.783 19.783 C 18.47 21.095 16.689 21.833 14.833 21.833 C 12.977 21.833 11.196 21.095 9.883 19.783 C 8.571 18.47 7.833 16.689 7.833 14.833"
        fill="none"
        stroke="#8b93b1"
        stroke-width="1.7"
        stroke-linecap="round"/>
    <path
        id="path_1"
        d="M 19.5 20.083 L 25.333 25.917"
        fill="none"
        stroke="#8b93b1"
        stroke-width="1.7"
        stroke-linecap="round"/>
</svg>
