<svg
    xmlns="http://www.w3.org/2000/svg"
    viewBox="0 0 32 32"
    id="vector">
    <path
        id="path"
        d="M 3 9.933 C 3 7.332 5.059 5.167 7.667 5.167 L 24 5.167 C 26.608 5.167 28.667 7.332 28.667 9.933 L 28.667 19.533 C 28.667 22.134 26.608 24.3 24 24.3 L 23.754 24.3 L 23.754 27.465 C 23.754 27.609 23.754 27.899 23.754 28.238 C 23.754 29.049 22.841 29.523 22.178 29.055 C 21.919 28.872 21.689 28.71 21.545 28.608 L 15.462 24.3 L 7.667 24.3 C 5.059 24.3 3 22.134 3 19.533 L 3 9.933 Z M 7.667 7.5 C 6.409 7.5 5.333 8.558 5.333 9.933 L 5.333 19.533 C 5.333 20.908 6.409 21.966 7.667 21.966 L 15.759 21.966 C 16.049 21.966 16.332 22.056 16.568 22.224 L 21.421 25.661 L 21.421 23.366 C 21.421 22.593 22.048 21.966 22.821 21.966 L 24 21.966 C 25.258 21.966 26.333 20.908 26.333 19.533 L 26.333 9.933 C 26.333 8.558 25.258 7.5 24 7.5 L 7.667 7.5 Z"
        fill="#8b93b1"
        fill-rule="evenodd"/>
    <path
        id="path_1"
        d="M 7.667 6.333 C 5.734 6.333 4.167 7.945 4.167 9.934 L 4.167 19.534 C 4.167 21.522 5.734 23.134 7.667 23.134 L 15.759 23.134 C 15.807 23.134 15.854 23.148 15.894 23.176 L 22.219 27.656 C 22.374 27.765 22.588 27.655 22.588 27.466 L 22.588 23.367 C 22.588 23.238 22.692 23.134 22.821 23.134 L 24 23.134 C 25.933 23.134 27.5 21.522 27.5 19.534 L 27.5 9.934 C 27.5 7.945 25.933 6.333 24 6.333 L 7.667 6.333 Z M 11.167 13.742 C 10.426 13.742 9.825 14.342 9.825 15.084 C 9.825 15.825 10.426 16.425 11.167 16.425 C 11.908 16.425 12.508 15.825 12.508 15.084 C 12.508 14.342 11.908 13.742 11.167 13.742 Z M 15.833 13.742 C 15.092 13.742 14.492 14.342 14.492 15.084 C 14.492 15.825 15.092 16.425 15.833 16.425 C 16.574 16.425 17.175 15.825 17.175 15.084 C 17.175 14.342 16.574 13.742 15.833 13.742 Z M 19.158 15.084 C 19.158 14.342 19.759 13.742 20.5 13.742 C 21.241 13.742 21.842 14.342 21.842 15.084 C 21.842 15.825 21.241 16.425 20.5 16.425 C 19.759 16.425 19.158 15.825 19.158 15.084 Z"
        fill="#8b93b1"
        fill-rule="evenodd"/>
</svg>
