<svg
    xmlns="http://www.w3.org/2000/svg"
    viewBox="0 0 32 32"
    id="vector">
    <path
        id="path"
        d="M 8.473 22.993 L 8.316 23.312 C 7.855 24.242 8.532 25.333 9.57 25.333 L 22.395 25.333 C 23.433 25.333 24.11 24.242 23.649 23.312 L 23.492 22.993 C 22.078 20.139 19.168 18.333 15.982 18.333 C 12.797 18.333 9.887 20.139 8.473 22.993 Z"
        fill="none"
        stroke="#8b93b1"
        stroke-width="1.7"
        stroke-linecap="round"/>
    <path
        id="path_1"
        d="M 12 10.75 C 11.996 11.615 12.264 12.459 12.765 13.16 C 13.267 13.862 13.977 14.384 14.791 14.652 C 15.606 14.92 16.484 14.92 17.299 14.652 C 18.114 14.384 18.823 13.862 19.325 13.16 C 19.826 12.459 20.094 11.615 20.09 10.75 C 20.094 9.885 19.826 9.041 19.325 8.339 C 18.823 7.638 18.114 7.115 17.299 6.847 C 16.484 6.579 15.606 6.579 14.791 6.847 C 13.977 7.115 13.267 7.638 12.765 8.339 C 12.264 9.041 11.996 9.885 12 10.75 Z"
        fill="none"
        stroke="#8b93b1"
        stroke-width="1.7"
        stroke-linecap="round"
        stroke-linejoin="round"/>
    <path
        id="path_2"
        d="M 22.4 14.25 C 22.398 14.867 22.59 15.469 22.948 15.969 C 23.307 16.469 23.813 16.841 24.395 17.032 C 24.976 17.223 25.603 17.223 26.184 17.032 C 26.765 16.841 27.272 16.469 27.63 15.969 C 27.988 15.469 28.181 14.867 28.179 14.25 C 28.181 13.633 27.988 13.03 27.63 12.531 C 27.272 12.031 26.765 11.658 26.184 11.467 C 25.603 11.276 24.976 11.276 24.395 11.467 C 23.813 11.658 23.307 12.031 22.948 12.531 C 22.59 13.03 22.398 13.633 22.4 14.25 Z"
        fill="none"
        stroke="#8b93b1"
        stroke-width="1.7"
        stroke-linecap="round"
        stroke-linejoin="round"/>
    <path
        id="path_3"
        d="M 26.289 24.483 C 26.149 25.09 25.883 25.662 25.512 26.183 L 27.552 26.183 C 29.494 26.183 30.728 24.104 29.799 22.399 C 28.931 20.807 27.263 19.816 25.45 19.816 L 24.598 19.816 C 25.177 20.32 25.639 20.908 25.95 21.554 C 26.941 21.708 27.817 22.315 28.306 23.212 C 28.618 23.785 28.203 24.483 27.552 24.483 L 26.289 24.483 Z"
        fill="#8b93b1"
        fill-rule="evenodd"/>
    <path
        id="path_4"
        d="M 9.8 14.25 C 9.802 14.867 9.61 15.469 9.251 15.969 C 8.893 16.469 8.386 16.841 7.805 17.032 C 7.224 17.223 6.597 17.223 6.016 17.032 C 5.435 16.841 4.928 16.469 4.57 15.969 C 4.211 15.469 4.019 14.867 4.021 14.25 C 4.019 13.633 4.211 13.03 4.57 12.531 C 4.928 12.031 5.435 11.658 6.016 11.467 C 6.597 11.276 7.224 11.276 7.805 11.467 C 8.386 11.658 8.893 12.031 9.251 12.531 C 9.61 13.03 9.802 13.633 9.8 14.25 Z"
        fill="none"
        stroke="#8b93b1"
        stroke-width="1.7"
        stroke-linecap="round"
        stroke-linejoin="round"/>
    <path
        id="path_5"
        d="M 5.522 24.483 C 5.578 25.078 5.734 25.649 5.978 26.183 L 4.471 26.183 C 2.529 26.183 1.294 24.104 2.223 22.399 C 3.091 20.807 4.759 19.816 6.572 19.816 L 7.482 19.816 C 6.914 20.317 6.446 20.903 6.109 21.549 C 5.103 21.694 4.211 22.304 3.716 23.212 C 3.404 23.785 3.819 24.483 4.471 24.483 L 5.522 24.483 Z"
        fill="#8b93b1"
        fill-rule="evenodd"/>
</svg>
