<svg
    xmlns="http://www.w3.org/2000/svg"
    viewBox="0 0 32 32"
    id="vector">
    <path
        id="path"
        d="M 6.666 6.667 L 25.333 6.667 C 25.952 6.667 26.545 6.912 26.983 7.35 C 27.42 7.787 27.666 8.381 27.666 9 L 27.666 23 C 27.666 23.618 27.42 24.212 26.983 24.65 C 26.545 25.087 25.952 25.333 25.333 25.333 L 6.666 25.333 C 6.048 25.333 5.454 25.087 5.016 24.65 C 4.579 24.212 4.333 23.618 4.333 23 L 4.333 9 C 4.333 8.381 4.579 7.787 5.016 7.35 C 5.454 6.912 6.048 6.667 6.666 6.667 Z"
        fill="none"
        stroke="#8b93b1"
        stroke-width="1.5"/>
    <path
        id="path_1"
        d="M 9.233 11.333 L 13.433 11.333 C 13.474 11.333 13.515 11.344 13.55 11.364 C 13.585 11.385 13.615 11.414 13.635 11.45 C 13.656 11.485 13.667 11.525 13.667 11.566 L 13.667 15.766 C 13.667 15.807 13.656 15.848 13.635 15.883 C 13.615 15.919 13.586 15.948 13.55 15.968 C 13.515 15.989 13.474 16 13.433 16 L 9.233 16 C 9.192 16 9.152 15.989 9.117 15.968 C 9.081 15.948 9.052 15.918 9.031 15.883 C 9.011 15.848 9 15.807 9 15.766 L 9 11.566 C 9 11.504 9.025 11.445 9.068 11.401 C 9.112 11.358 9.171 11.333 9.233 11.333 Z"
        fill="none"
        stroke="#8b93b1"
        stroke-width="1.5"/>
    <path
        id="path_2"
        d="M 17.556 11.333 L 23.583 11.333 M 17.556 16 L 23.583 16 M 9 20.666 L 23.583 20.666"
        fill="none"
        stroke="#8b93b1"
        stroke-width="1.5"
        stroke-linecap="round"/>
</svg>
