<svg
    xmlns="http://www.w3.org/2000/svg"
    viewBox="0 0 32 32"
    id="vector">
    <path
        id="path"
        d="M 16 27.667 C 22.443 27.667 27.666 22.444 27.666 16 C 27.666 9.557 22.443 4.333 16 4.333 C 9.556 4.333 4.333 9.557 4.333 16 C 4.333 22.444 9.556 27.667 16 27.667 Z M 16.054 19.431 C 16.02 19.414 15.979 19.414 15.945 19.431 L 13.046 20.956 C 12.618 21.181 12.118 20.818 12.199 20.341 L 12.753 17.112 C 12.76 17.074 12.747 17.036 12.72 17.009 L 10.374 14.722 C 10.027 14.385 10.219 13.797 10.697 13.727 L 13.939 13.256 C 13.977 13.251 14.01 13.227 14.027 13.192 L 15.477 10.255 C 15.691 9.821 16.309 9.821 16.523 10.255 L 17.973 13.192 C 17.99 13.227 18.023 13.251 18.061 13.256 L 21.303 13.727 C 21.781 13.797 21.972 14.385 21.626 14.722 L 19.28 17.009 C 19.253 17.036 19.24 17.074 19.246 17.112 L 19.8 20.341 C 19.882 20.818 19.382 21.181 18.954 20.956 L 16.054 19.431 Z M 24.5 16 C 24.5 20.695 20.694 24.5 16 24.5 C 11.305 24.5 7.5 20.695 7.5 16 C 7.5 11.306 11.305 7.5 16 7.5 C 20.694 7.5 24.5 11.306 24.5 16 Z M 26 16 C 26 21.523 21.523 26 16 26 C 10.477 26 6 21.523 6 16 C 6 10.477 10.477 6 16 6 C 21.523 6 26 10.477 26 16 Z"
        fill="#8b93b1"
        fill-rule="evenodd"/>
</svg>
