<svg
    xmlns="http://www.w3.org/2000/svg"
    viewBox="0 0 32 32"
    id="vector">
    <path
        id="path"
        d="M 19 9 L 4 9 C 2.895 9 2 9.895 2 11 L 2 22 C 2 23.105 2.895 24 4 24 L 19 24 C 20.105 24 21 23.105 21 22 L 21 11 C 21 9.895 20.105 9 19 9 Z"
        fill="#8b93b1"
        stroke="#8b93b1"
        stroke-width="1.7"/>
    <path
        id="path_1"
        d="M 29.5 20.65 L 29.5 11.85 C 29.5 11.469 29.09 11.227 28.757 11.413 L 25.257 13.357 C 25.098 13.445 25 13.613 25 13.794 L 25 18.706 C 25 18.887 25.098 19.055 25.257 19.143 L 28.757 21.087 C 29.09 21.273 29.5 21.032 29.5 20.65 Z"
        fill="#8b93b1"
        stroke="#8b93b1"
        stroke-width="1.7"/>
</svg>
