<svg
    xmlns="http://www.w3.org/2000/svg"
    viewBox="0 0 32 32"
    id="vector">
    <path
        id="path"
        d="M 6.667 5.908 C 4.959 5.908 3.575 7.292 3.575 9 L 3.575 23 C 3.575 24.707 4.959 26.091 6.667 26.091 L 25.334 26.091 C 27.041 26.091 28.425 24.707 28.425 23 L 28.425 9 C 28.425 7.292 27.041 5.908 25.334 5.908 L 6.667 5.908 Z M 8.242 11.566 C 8.242 11.019 8.686 10.575 9.233 10.575 L 13.433 10.575 C 13.981 10.575 14.425 11.019 14.425 11.566 L 14.425 15.767 C 14.425 16.314 13.981 16.758 13.433 16.758 L 9.233 16.758 C 8.686 16.758 8.242 16.314 8.242 15.767 L 8.242 11.566 Z M 9.758 12.091 L 9.758 15.242 L 12.908 15.242 L 12.908 12.091 L 9.758 12.091 Z M 16.797 11.333 C 16.797 10.914 17.137 10.575 17.556 10.575 L 23.583 10.575 C 24.002 10.575 24.342 10.914 24.342 11.333 C 24.342 11.752 24.002 12.091 23.583 12.091 L 17.556 12.091 C 17.137 12.091 16.797 11.752 16.797 11.333 Z M 17.556 15.242 C 17.137 15.242 16.797 15.581 16.797 16 C 16.797 16.419 17.137 16.758 17.556 16.758 L 23.583 16.758 C 24.002 16.758 24.342 16.419 24.342 16 C 24.342 15.581 24.002 15.242 23.583 15.242 L 17.556 15.242 Z M 8.242 20.666 C 8.242 20.248 8.581 19.908 9 19.908 L 23.583 19.908 C 24.002 19.908 24.342 20.248 24.342 20.666 C 24.342 21.085 24.002 21.425 23.583 21.425 L 9 21.425 C 8.581 21.425 8.242 21.085 8.242 20.666 Z"
        fill="#8b93b1"
        fill-rule="evenodd"/>
</svg>
