<svg
    xmlns="http://www.w3.org/2000/svg"
    viewBox="0 0 32 32"
    id="vector">
    <path
        id="path"
        d="M 14.14 8.092 C 14.14 8.182 14.079 8.262 13.991 8.287 C 10.859 9.174 8.562 12.083 8.562 15.537 L 8.562 20.556 C 8.562 21.018 8.192 21.393 7.737 21.393 C 6.824 21.393 6.083 22.144 6.083 23.066 L 6.083 24.322 C 6.083 24.552 6.267 24.739 6.497 24.739 L 25.502 24.739 C 25.732 24.739 25.917 24.549 25.917 24.322 L 25.917 23.066 C 25.917 22.142 25.173 21.393 24.263 21.393 C 23.807 21.393 23.437 21.021 23.437 20.556 L 23.437 15.537 C 23.437 12.084 21.141 9.174 18.009 8.287 C 17.921 8.262 17.859 8.183 17.859 8.092 L 17.859 7.382 C 17.86 6.34 17.027 5.5 16 5.5 C 14.976 5.5 14.141 6.343 14.141 7.382 L 14.141 8.092 Z M 13.114 24.939 C 13.107 24.829 13.197 24.739 13.308 24.739 L 18.692 24.739 C 18.802 24.739 18.893 24.829 18.886 24.939 C 18.784 26.463 17.531 27.667 16 27.667 C 14.469 27.667 13.216 26.463 13.114 24.939 Z"
        fill="none"
        stroke="#8b93b1"
        stroke-width="1.7"
        stroke-linecap="round"
        fill-rule="evenodd"/>
</svg>
