<svg
    xmlns="http://www.w3.org/2000/svg"
    viewBox="0 0 32 32"
    id="vector">
    <path
        id="path"
        d="M 3.483 10.267 C 3.483 7.832 5.409 5.817 7.833 5.817 L 24.167 5.817 C 26.592 5.817 28.517 7.832 28.517 10.267 L 28.517 19.867 C 28.517 22.302 26.592 24.317 24.167 24.317 L 23.605 24.317 L 23.605 27.799 C 23.605 28.678 22.613 29.191 21.895 28.683 L 15.73 24.317 L 7.833 24.317 C 5.409 24.317 3.483 22.302 3.483 19.867 L 3.483 10.267 Z M 7.833 7.517 C 6.392 7.517 5.183 8.725 5.183 10.267 L 5.183 19.867 C 5.183 21.408 6.392 22.617 7.833 22.617 L 15.926 22.617 C 16.15 22.617 16.369 22.686 16.552 22.816 L 21.904 26.607 L 21.904 23.7 C 21.904 23.102 22.39 22.617 22.988 22.617 L 24.167 22.617 C 25.608 22.617 26.817 21.408 26.817 19.867 L 26.817 10.267 C 26.817 8.725 25.608 7.517 24.167 7.517 L 7.833 7.517 Z"
        fill="#8b93b1"
        fill-rule="evenodd"/>
    <path
        id="path_1"
        d="M 10.75 15.417 C 10.75 15.54 10.788 15.661 10.861 15.761 C 10.933 15.861 11.035 15.935 11.153 15.973 C 11.27 16.012 11.397 16.012 11.514 15.973 C 11.631 15.935 11.734 15.861 11.806 15.761 C 11.878 15.661 11.917 15.54 11.917 15.417 C 11.917 15.293 11.878 15.173 11.806 15.073 C 11.734 14.973 11.631 14.898 11.514 14.86 C 11.397 14.822 11.27 14.822 11.153 14.86 C 11.035 14.898 10.933 14.973 10.861 15.073 C 10.788 15.173 10.75 15.293 10.75 15.417 Z"
        fill="none"
        stroke="#8b93b1"
        stroke-width="1.5167"/>
    <path
        id="path_2"
        d="M 15.416 15.417 C 15.416 15.54 15.455 15.661 15.527 15.761 C 15.6 15.861 15.702 15.935 15.819 15.973 C 15.937 16.012 16.063 16.012 16.18 15.973 C 16.298 15.935 16.4 15.861 16.472 15.761 C 16.545 15.661 16.584 15.54 16.583 15.417 C 16.584 15.293 16.545 15.173 16.472 15.073 C 16.4 14.973 16.298 14.898 16.18 14.86 C 16.063 14.822 15.937 14.822 15.819 14.86 C 15.702 14.898 15.6 14.973 15.527 15.073 C 15.455 15.173 15.416 15.293 15.416 15.417 Z"
        fill="none"
        stroke="#8b93b1"
        stroke-width="1.5167"/>
    <path
        id="path_3"
        d="M 20.667 15.417 M 20.084 15.417 C 20.083 15.293 20.122 15.173 20.194 15.073 C 20.267 14.973 20.369 14.898 20.486 14.86 C 20.604 14.822 20.73 14.822 20.847 14.86 C 20.965 14.898 21.067 14.973 21.139 15.073 C 21.212 15.173 21.251 15.293 21.25 15.417 C 21.251 15.54 21.212 15.661 21.139 15.761 C 21.067 15.861 20.965 15.935 20.847 15.973 C 20.73 16.012 20.604 16.012 20.486 15.973 C 20.369 15.935 20.267 15.861 20.194 15.761 C 20.122 15.661 20.083 15.54 20.084 15.417"
        fill="none"
        stroke="#8b93b1"
        stroke-width="1.5167"/>
    <path
        id="path_4"
        d="M 20.667 15.417 M 20.084 15.417 C 20.083 15.293 20.122 15.173 20.194 15.073 C 20.267 14.973 20.369 14.898 20.486 14.86 C 20.604 14.822 20.73 14.822 20.847 14.86 C 20.965 14.898 21.067 14.973 21.139 15.073 C 21.212 15.173 21.251 15.293 21.25 15.417 C 21.251 15.54 21.212 15.661 21.139 15.761 C 21.067 15.861 20.965 15.935 20.847 15.973 C 20.73 16.012 20.604 16.012 20.486 15.973 C 20.369 15.935 20.267 15.861 20.194 15.761 C 20.122 15.661 20.083 15.54 20.084 15.417"
        fill="#8b93b1"/>
    <path
        id="path_5"
        d="M 15.416 15.417 C 15.416 15.54 15.455 15.661 15.527 15.761 C 15.6 15.861 15.702 15.935 15.819 15.973 C 15.937 16.012 16.063 16.012 16.18 15.973 C 16.298 15.935 16.4 15.861 16.472 15.761 C 16.545 15.661 16.584 15.54 16.583 15.417 C 16.584 15.293 16.545 15.173 16.472 15.073 C 16.4 14.973 16.298 14.898 16.18 14.86 C 16.063 14.822 15.937 14.822 15.819 14.86 C 15.702 14.898 15.6 14.973 15.527 15.073 C 15.455 15.173 15.416 15.293 15.416 15.417 Z"
        fill="#8b93b1"/>
    <path
        id="path_6"
        d="M 10.75 15.417 C 10.75 15.54 10.788 15.661 10.861 15.761 C 10.933 15.861 11.035 15.935 11.153 15.973 C 11.27 16.012 11.397 16.012 11.514 15.973 C 11.631 15.935 11.734 15.861 11.806 15.761 C 11.878 15.661 11.917 15.54 11.917 15.417 C 11.917 15.293 11.878 15.173 11.806 15.073 C 11.734 14.973 11.631 14.898 11.514 14.86 C 11.397 14.822 11.27 14.822 11.153 14.86 C 11.035 14.898 10.933 14.973 10.861 15.073 C 10.788 15.173 10.75 15.293 10.75 15.417 Z"
        fill="#8b93b1"/>
</svg>
