<svg
    xmlns="http://www.w3.org/2000/svg"
    viewBox="0 0 24 24"
    id="vector">
    <path
        id="path"
        d="M 0 12 C 0 5.373 5.373 0 12 0 C 18.627 0 24 5.373 24 12 C 24 18.627 18.627 24 12 24 C 5.373 24 0 18.627 0 12 Z"
        fill="#ff6681"/>
    <path
        id="path_1"
        d="M 17.55 8.902 C 17.37 8.481 17.109 8.099 16.782 7.778 C 16.456 7.457 16.071 7.201 15.648 7.025 C 15.21 6.843 14.74 6.749 14.265 6.75 C 13.6 6.75 12.95 6.933 12.385 7.28 C 12.25 7.362 12.122 7.453 12.001 7.552 C 11.879 7.452 11.751 7.362 11.616 7.279 C 11.051 6.933 10.402 6.75 9.736 6.75 C 9.256 6.75 8.792 6.842 8.353 7.025 C 7.929 7.202 7.547 7.455 7.219 7.778 C 6.892 8.098 6.631 8.48 6.45 8.902 C 6.262 9.34 6.166 9.805 6.166 10.284 C 6.166 10.736 6.258 11.207 6.441 11.686 C 6.593 12.086 6.812 12.501 7.091 12.92 C 7.535 13.584 8.144 14.276 8.9 14.977 C 10.153 16.14 11.394 16.943 11.447 16.976 L 11.767 17.182 C 11.909 17.272 12.091 17.272 12.233 17.182 L 12.553 16.976 C 12.605 16.942 13.845 16.14 15.1 14.977 C 15.856 14.276 16.465 13.584 16.908 12.92 C 17.188 12.501 17.408 12.086 17.559 11.686 C 17.741 11.206 17.833 10.736 17.833 10.284 C 17.835 9.805 17.739 9.34 17.551 8.902 Z"
        fill="#ffffff"/>
</svg>
