<svg width="18" height="16" viewBox="0 0 18 16" fill="none" xmlns="http://www.w3.org/2000/svg">
<path d="M13.9321 9.93344C13.7163 10.1426 13.6171 10.4451 13.6663 10.7418L14.4071 14.8418C14.4696 15.1893 14.3229 15.5409 14.0321 15.7418C13.7471 15.9501 13.3679 15.9751 13.0571 15.8084L9.36628 13.8834C9.23794 13.8151 9.09544 13.7784 8.94961 13.7743H8.72378C8.64544 13.7859 8.56878 13.8109 8.49878 13.8493L4.80711 15.7834C4.62461 15.8751 4.41794 15.9076 4.21545 15.8751C3.72211 15.7818 3.39294 15.3118 3.47378 14.8159L4.21545 10.7159C4.26461 10.4168 4.16544 10.1126 3.94961 9.9001L0.940445 6.98344C0.688778 6.73927 0.601278 6.3726 0.716278 6.04177C0.827945 5.71177 1.11294 5.47094 1.45711 5.41677L5.59878 4.81594C5.91378 4.78344 6.19044 4.59177 6.33211 4.30844L8.15711 0.566768C8.20044 0.483435 8.25628 0.406768 8.32378 0.341768L8.39878 0.283435C8.43794 0.240102 8.48294 0.204268 8.53294 0.175102L8.62378 0.141768L8.76544 0.0834351H9.11628C9.42961 0.115935 9.70544 0.303435 9.84961 0.583435L11.6988 4.30844C11.8321 4.58094 12.0913 4.7701 12.3904 4.81594L16.5321 5.41677C16.8821 5.46677 17.1746 5.70844 17.2904 6.04177C17.3996 6.37594 17.3054 6.7426 17.0488 6.98344L13.9321 9.93344Z" fill="#CCD2E3"/>
</svg>
